<?xml version="1.0" encoding="utf-8"?>
<!-- Generator: Adobe Illustrator 24.3.0, SVG Export Plug-In . SVG Version: 6.00 Build 0)  -->
<svg version="1.1" id="Signature_655" xmlns="http://www.w3.org/2000/svg" xmlns:xlink="http://www.w3.org/1999/xlink" x="0px"
	 y="0px" viewBox="0 0 414.5 100" style="enable-background:new 0 0 414.5 100;" xml:space="preserve">
<style type="text/css">
	.st0{fill:#07254B;}
	.st1{fill-rule:evenodd;clip-rule:evenodd;fill:#07254B;}
	.st2{fill:url(#SVGID_1_);}
</style>
<g>
	<path id="University_of_Toronto_Mark_Stacked" class="st0" d="M178.7,54.9c5.4,0,8.7,4.3,8.7,8.7c0,4.8-4.2,8.8-9,8.8
		c-4.9,0-8.5-4-8.5-8.8C169.9,59,174,54.9,178.7,54.9 M179.5,71.3c3.2,0,5.1-3.1,5.1-6.1c0-4.8-2.7-9.2-6.8-9.2
		c-3.2,0-5.2,2.9-5.2,6.2C172.6,66.6,175.2,71.3,179.5,71.3z M162,55.3h-3.6c-1.6,0-2.7,0-3.7,0c-0.9,0-1.1-0.3-1.2-0.4H153
		c-0.1,0.2-1.2,3.2-1.3,3.4l0.5,0.3c0.5-1.5,1.2-2.2,4.2-2.2c0.3,0,1.2,0,2.4,0.1c0.2,2.1,0.2,4.3,0.2,6.4c0,1.3,0,6.4-0.2,7.5
		c-0.1,0.5-0.3,0.7-1.7,1c-0.6,0.1-1,0.1-1.3,0.2l0.1,0.7c0.4,0,1-0.1,1.7-0.1c0.7,0,1.5-0.1,2.7-0.1c0.5,0,1.2,0,1.9,0
		c0.7,0,1.4,0,2.2,0.1l0.1-0.7c-0.2,0-0.4,0-0.8-0.1c-0.5-0.1-1.2-0.2-1.5-0.5c-0.5-0.6-0.5-5.2-0.5-6.4c0-1.1,0.2-6.4,0.2-7.6
		c0-0.5,0.2-0.5,1.7-0.5l0.1,0c0.7,0,0.9,0,1.1,0c3,0,3.1,0.7,3.6,2.2l0.5-0.3c0-0.2-0.6-3.2-0.7-3.4h-0.5c-0.1,0.2-0.3,0.4-1.2,0.4
		c-1.2,0.1-2.5,0-3.9,0H162z M134.3,55.2c-0.7,0-1.2,0-2,0c-0.4,0-0.8,0-1.3,0c-0.4,0-0.5,0-0.9-0.1v0.7c2.4,0.5,2.7,0.8,2.6,5.7
		l0,3c0,1.1-0.1,4.5-0.2,5.5c-0.1,1.1-0.6,1.2-1.2,1.3c-0.3,0.1-0.7,0.2-1,0.2v0.6c0.6,0,1.3,0,1.9-0.1c0.6,0,1.5-0.1,2.1-0.1
		c0.6,0,1.3,0,1.9,0.1c0.5,0,0.9,0,1.2,0.1v-0.7c-3.3-0.6-3.3-1.1-3.3-3.9l0-7.1l0-1.3c0,0,0,0,12.4,13.1h0.9
		c-0.1-1.4-0.1-5-0.1-6.5c0-2.2,0-8,0.1-8.7c0.1-1.1,1.6-1.2,2.4-1.2v-0.6c-1.8,0-2.8,0-3.6,0c-0.8-0.1-1.3-0.1-1.8-0.1
		c-0.4,0-0.8,0-1.1,0l-0.1,0.6c2.8,0.2,2.8,0.4,2.8,6.8c0,0.8,0,4.5,0,5.2L134.3,55.2z M119,54.9c5.4,0,8.7,4.3,8.7,8.7
		c0,4.8-4.2,8.8-9,8.8c-4.9,0-8.5-4-8.5-8.8C110.3,59,114.4,54.9,119,54.9z M119.9,71.3c3.2,0,5.1-3.1,5.1-6.1
		c0-4.8-2.7-9.2-6.8-9.2c-3.2,0-5.2,2.9-5.2,6.2C113,66.6,115.5,71.3,119.9,71.3z M92.3,55.2c0.5,0,1.1,0.1,1.6,0.1
		c0.5,0,1.1,0,1.6,0c0.4,0,1.3-0.1,2.3-0.2c1-0.1,1.7-0.1,2.3-0.1c3.6,0,5.9,1.9,5.9,4.5c0,2.4-2.1,3.8-3.8,4.2
		c3.5,5.1,4.1,5.8,5.5,7.1c0.2,0.2,1.2,1.1,2.5,1.2l0,0.6c-2.9,0-4.3-1.1-5.1-1.7c-2.6-2-5.1-6-5.6-6.9c-0.7,0-1,0-2.2-0.1v2.4
		c0,1.1,0,3.5,0.3,4.2c0.2,0.4,1.5,0.8,2.3,1l0,0.6c-1-0.2-2.6-0.3-3.7-0.3c-0.6,0-3.2,0.2-3.7,0.2l-0.1-0.5c0.3,0,1.8-0.4,2.1-1.1
		c0.3-0.6,0.3-4.2,0.3-5.3v-4c0-5.2-0.3-5.3-2.4-5.4L92.3,55.2z M97.2,63.1c0.5,0.1,1.3,0.1,1.8,0.1c0.6,0,4.2,0,4.2-3.4
		c0-1.6-1.1-3.8-4.1-3.8c-1.8,0-1.8,0.2-1.8,3.1L97.2,63.1z M80.6,54.9c5.4,0,8.7,4.3,8.7,8.7c0,4.8-4.2,8.8-9,8.8
		c-4.9,0-8.5-4-8.5-8.8C71.9,59,75.9,54.9,80.6,54.9z M81.5,71.3c3.2,0,5.1-3.1,5.1-6.1c0-4.8-2.7-9.2-6.8-9.2
		c-3.2,0-5.2,2.9-5.2,6.2C74.5,66.6,77.1,71.3,81.5,71.3z M63.5,55.3h-3.6c-1.6,0-2.7,0-3.7,0c-0.9,0-1.1-0.3-1.2-0.4h-0.5
		c-0.1,0.2-1.2,3.2-1.3,3.4l0.5,0.3c0.5-1.5,1.2-2.2,4.2-2.2c0.3,0,1.2,0,2.4,0.1c0.2,2.1,0.2,4.3,0.2,6.4c0,1.3,0,6.4-0.2,7.5
		c-0.1,0.5-0.3,0.7-1.7,1c-0.6,0.1-1,0.1-1.3,0.2l0.1,0.7c0.5,0,1-0.1,1.7-0.1c0.7,0,1.5-0.1,2.7-0.1c0.5,0,1.2,0,1.9,0
		c0.7,0,1.4,0,2.2,0.1l0.1-0.7c-0.2,0-0.4,0-0.8-0.1c-0.5-0.1-1.2-0.2-1.5-0.5c-0.5-0.6-0.5-5.2-0.5-6.4c0-1.1,0.2-6.4,0.2-7.6
		c0-0.5,0.2-0.5,1.7-0.5l0.1,0c0.7,0,0.9,0,1.1,0c3,0,3.1,0.7,3.6,2.2l0.5-0.3c0-0.2-0.6-3.2-0.7-3.4h-0.5c-0.1,0.2-0.3,0.4-1.2,0.4
		c-1.2,0.1-2.5,0-3.9,0H63.5z M172.4,40.4c-1.1,0.1-1.3,0.1-2.6,0.1l-1.3,0l-1.3,0l-0.4,0l-0.3,0l0,0.1v0.3l0.1,0
		c0.3,0,0.6,0,0.8,0.2c0.2,0.3,0.2,0.6,0.2,3.3c0,1.3-0.1,2.7-0.1,2.9c-0.1,0.3-0.5,0.4-0.8,0.4l0,0l0,0.4l0.1,0
		c0.7-0.1,1.6-0.1,1.8-0.1l0.7,0c0,0,1.2,0.1,1.2,0.1l0-0.1v-0.4l-0.1,0c-0.9-0.1-1.2-0.2-1.2-0.3c-0.1-0.1-0.1-0.6-0.1-1
		c0-0.1,0-0.3,0-0.4c0,0,0-1.1,0-1.4c0.1,0,0.6,0,0.6,0c0.7,0,1.5,0.2,1.7,0.3c0.1,0,0.2,0.3,0.3,0.6l0,0.1h0.4l0-0.1
		c0.1-0.8,0.1-1.5,0-2.1l0-0.1h-0.4l0,0.1c-0.1,0.6-0.1,0.8-1.6,0.8c-0.4,0-0.6,0-1-0.1c0,0,0,0,0,0c0-0.1,0-0.3,0-0.4
		c0-0.2,0-0.3,0-0.5c0,0,0-1.6,0-1.8c0.4-0.1,0.8-0.1,0.9-0.1c0.8,0,1.5,0.1,1.8,0.4c0.2,0.2,0.3,0.5,0.4,0.7l0,0.1l0.4,0l0-0.1
		c0-0.1,0-0.5,0-0.9L172.4,40.4L172.4,40.4z M160.9,40.4c2.5,0,4,2,4,3.9c0,2.1-1.9,3.9-4.1,3.9c-2.2,0-3.8-1.7-3.8-3.9
		C157,42.2,158.8,40.4,160.9,40.4z M161.3,47.6c1.4,0,2.2-1.4,2.2-2.6c0-2-1.1-4-3-4c-1.5,0-2.3,1.3-2.3,2.7
		C158.3,45.6,159.4,47.6,161.3,47.6z M146.9,40.5v0.4l0.1,0c0.4,0,0.9,0,0.9,0.3c0,0.1-0.2,0.5-1.6,2.6c-0.6-0.7-2-2.5-2-2.7
		c0-0.1,0-0.2,0.9-0.2l0.1,0v-0.4l-0.7,0l-1.4,0l-1.5,0l0,0.1v0.3h0.1c0.4,0,0.6,0,0.8,0.2c0.5,0.3,2.1,2.4,2.1,2.5
		c0,0,0.6,0.8,0.7,0.9c0,0.5,0.1,1.1,0.1,1.9c0,1.1,0,1.4-1.1,1.4l-0.1,0l0,0.4l0.1,0c0.2,0,0.6,0,1.1-0.1l0.8-0.1l0.6,0l0.1,0
		l0.8,0l0-0.1v-0.3l-0.1,0c-1-0.1-1-0.2-1.1-0.4c0,0,0-0.1,0-0.1c0-0.5,0-1,0-1.5c0-0.4,0-0.9,0-1.3c0,0,1.5-2.3,1.5-2.3
		c0.5-0.7,0.7-1.1,1.7-1.1l0.1,0v-0.4l-0.1,0c-0.1,0-0.5,0-0.9,0l-0.5,0l-0.6,0l-0.4,0C147.5,40.5,146.9,40.5,146.9,40.5L146.9,40.5
		L146.9,40.5z M140.2,40.3H140l0,0c0,0-0.1,0.1-0.5,0.2l-1.5,0h-2.1l-1.7,0c-0.4,0-0.5-0.1-0.5-0.2l0,0h-0.3l0,0
		c0,0.1-0.5,1.4-0.6,1.5l0,0l0.3,0.2l0-0.1c0.2-0.6,0.5-0.9,1.8-0.9c0.4,0,0.8,0,1,0.1c0.1,1,0.1,2,0.1,2.7c0,0.7,0,2.8-0.1,3.3
		c0,0.2-0.1,0.3-0.7,0.4c0,0-0.5,0.1-0.5,0.1l-0.2,0l0.1,0.4l0.6,0l0.2,0l1.2,0l0.2,0l0.7,0l0.5,0l0.5,0l0-0.1l0-0.4l-0.3,0l-0.1,0
		c-0.3,0-0.6-0.1-0.6-0.2c-0.1-0.1-0.2-0.6-0.2-2.8l0-1.6l0-1.8c0-0.1,0-0.2,0.7-0.2l0,0l0.4,0l0.1,0c1.2,0,1.3,0.3,1.5,0.8l0.1,0.2
		l0.3-0.2l-0.1-0.4C140.4,40.9,140.3,40.4,140.2,40.3L140.2,40.3L140.2,40.3z M127.6,40.5v0.4l0.1,0c1,0,1.1,0.2,1.2,0.4
		c0.1,0.3,0.2,2.5,0.2,3.3v0.1c0,0.6,0,2.2-0.2,2.5c-0.1,0.1-0.3,0.3-1.3,0.4l-0.1,0v0.4l1.2,0h1.1l1.8,0.1l0-0.1l0-0.4h-0.1
		c-0.8,0-1.1,0-1.1-0.3c0-0.2-0.1-0.9-0.1-2.1c0-2.9,0-3.7,0.2-4c0.2-0.3,0.9-0.3,1.1-0.3l0.1,0v-0.4h-0.9c0,0-1.3,0-1.3,0l-0.8,0
		l-0.4,0C128.3,40.5,127.7,40.5,127.6,40.5L127.6,40.5L127.6,40.5z M120.9,42.6c0,1.3,1.1,1.7,1.9,2.1l0.1,0c1.4,0.6,2,0.8,2,1.8
		c0,0.6-0.4,1.2-1.3,1.2c-0.8,0-1.4-0.3-1.7-0.6c-0.4-0.4-0.5-0.9-0.6-1.1l0,0h-0.5l0,0.1c0.3,0.8,0.3,1.2,0.3,2.1l0,0.1l0.4,0l0,0
		c0,0,0.1-0.2,0.2-0.2c0.1,0,0.3,0.1,0.5,0.1l0.1,0c0,0,0.1,0,0.1,0c0.2,0.1,0.4,0.1,0.9,0.1c1.8,0,2.8-1.1,2.8-2.2
		c0-1.5-1.5-2.1-2.4-2.4c-0.9-0.4-1.6-0.7-1.6-1.4c0-0.7,0.6-1.2,1.4-1.2c0.8,0,1.3,0.4,1.4,0.6c0.3,0.3,0.4,0.6,0.5,0.9l0,0l0.1,0
		h0.3l-0.1-1c0-0.4,0.1-0.7,0.1-0.9l0-0.1l-0.3-0.1c0,0-0.2,0.1-0.2,0.2c-0.7-0.2-1-0.2-1.5-0.2C122,40.4,120.9,41.3,120.9,42.6z
		 M115.6,40.4c1.6,0,2.7,0.8,2.7,2.1c0,1-0.9,1.6-1.7,1.9c1.5,2.1,1.8,2.5,2.4,3c0,0,0.5,0.5,1.1,0.5l0.1,0l0,0.4h-0.1
		c-1.3,0-2-0.5-2.3-0.8c-1.1-0.9-2.3-2.6-2.5-3c-0.1,0-0.8,0-0.9,0c0,0.1,0,1,0,1s0,0.3,0,0.3c0,0.5,0,1.3,0.1,1.5
		c0.1,0.1,0.7,0.3,1,0.4l0,0l0,0.4l-0.1,0c-0.4-0.1-1.2-0.1-1.6-0.1c-0.3,0-1.4,0.1-1.7,0.1l-0.1,0l-0.1-0.3l0.1,0
		c0.2,0,0.8-0.2,0.9-0.4c0.1-0.2,0.1-1.6,0.1-2.1l0-0.2v-1.8c0-2.3-0.1-2.3-1-2.3l-0.1,0l0-0.4l0.1,0c0,0,0.7,0,0.7,0l0.7,0
		c0.2,0,0.6,0,1-0.1h0h0L115.6,40.4z M114.4,44c0.2,0,0.5,0,0.7,0c0.7,0,1.8-0.2,1.8-1.4c0-0.7-0.5-1.6-1.8-1.6
		c-0.7,0-0.7,0-0.7,1.3C114.4,42.2,114.4,43.9,114.4,44z M110,40.5c-0.9,0.1-2.4,0.1-3.3,0.1c-0.6,0-2.1,0-2.6-0.1l-0.1,0v0.4l0.1,0
		c0.6,0.1,0.7,0.1,0.7,0.3c0.1,0.2,0.1,0.9,0.1,3.1c0,1-0.1,2.5-0.2,3c0,0.3-0.4,0.3-0.9,0.4l-0.1,0l0.1,0.4l0.1,0
		c1-0.1,2.2-0.1,3-0.1l3,0l0,0c0.2-0.3,0.4-0.6,0.6-1.8l0-0.1l-0.4,0l0,0c-0.3,0.7-0.8,1.4-2.6,1.4c-0.6,0-0.9-0.1-1.3-0.2
		c0-0.2-0.1-0.5-0.1-1.5c0,0,0-1.1,0-1.4c0.5-0.1,0.9-0.1,1.1-0.1c1.5,0,1.6,0.1,1.8,1l0,0h0.4l0-0.1c0-1,0-1.2,0-2.3l0-0.1H109l0,0
		c-0.1,0.6-0.3,0.7-0.5,0.7c-1.1,0.1-2.1,0.1-2.4,0.1c0-0.1,0-1,0-1c0-0.5,0-1.2,0.1-1.8c0.4-0.1,1.1-0.1,1.5-0.1
		c0.8,0,1.3,0.1,1.5,0.3c0.2,0.2,0.2,0.5,0.2,0.8l0,0.1l0.4,0.1v-0.1c0-0.1,0-0.4,0.1-0.6l0-0.3C110,40.9,110,40.7,110,40.5
		L110,40.5L110,40.5z M93.7,40.6l0,0.3l0.1,0c1,0.1,1.1,0.1,1.9,1.8l1.7,3.5l0,0c0.3,0.6,0.7,1.5,0.9,2l0,0h0.4l0,0
		c0.3-0.8,0.4-1.3,1-2.4l1.8-3.6c0.4-0.8,0.6-1.1,1.4-1.2l0.1,0v-0.4l-0.1,0c-0.5,0-0.9,0-1.4,0c0,0-1.4,0-1.4,0l0,0.1l0,0.4l0.1,0
		c0.4,0,0.9,0,0.9,0.5c0,0.2-0.2,0.6-0.3,0.8l0,0.1c-0.4,0.8-0.6,1.3-0.9,1.8L99,45.8c0,0-0.1,0.3-0.2,0.4c-0.8-1.3-2.3-4.9-2.3-5.1
		c0-0.1,0-0.1,0.6-0.2l0.2,0v-0.4l-1.2,0l-0.6,0C95.1,40.5,94.2,40.5,93.7,40.6L93.7,40.6L93.7,40.6z M88.6,40.5v0.4l0.1,0
		c1,0,1.1,0.2,1.2,0.4c0.1,0.3,0.2,2.5,0.2,3.3v0.1c0,0.6,0,2.2-0.2,2.5c-0.1,0.1-0.3,0.3-1.3,0.4l-0.1,0v0.4l1.2,0h1.1l1.8,0.1
		l0-0.1l0-0.4h-0.1c-0.8,0-1.1,0-1.1-0.3c0-0.2-0.1-0.9-0.1-2.1c0-2.9,0-3.7,0.2-4c0.2-0.3,0.9-0.3,1.1-0.3l0.1,0v-0.4h-0.9
		c0,0-1.3,0-1.3,0l-0.8,0l-0.4,0L88.6,40.5L88.6,40.5L88.6,40.5z M84.2,40.4L84.2,40.4L84.2,40.4l-0.1,0.4l0.1,0
		c1.5,0.1,1.2,0.1,1.3,3.1c0,0,0,1.8,0,2c-0.1-0.1-5.2-5.5-5.2-5.5l0,0l-0.8,0l-0.6,0l0,0l-0.5,0l0,0.1l0,0.4l0,0
		c1,0.2,1.2,0.3,1.2,2.4l0,1.3c0,0.5-0.1,2-0.1,2.4c-0.1,0.4-0.2,0.5-0.5,0.5c0,0-0.5,0.1-0.5,0.1l0,0.1v0.3l1.8-0.1l0.8,0
		c0,0,0.6,0,0.6,0l0-0.1v-0.4l-0.1,0c-1.4-0.2-1.4-0.4-1.4-1.6l0-3.1c0,0,0-0.3,0-0.4c0.3,0.3,5.5,5.7,5.4,5.7l0,0l0.5,0l0-0.1
		c0-0.6,0-2.2,0-2.9c0-1,0-3.4,0.1-3.7c0.1-0.5,0.5-0.6,0.9-0.6h0.1v-0.4h-0.1c-0.8,0-1.2,0.1-1.6,0l-0.2,0l-0.6,0L84.2,40.4z
		 M70.6,40.5l-0.4,0c-0.5,0-1.5,0-1.7,0l-0.1,0l0,0.4h0.1c0.5,0,0.7,0,0.8,0.1c0.2,0.1,0.3,1,0.3,2.1l-0.1,2.5
		c0,1.7,1.1,2.6,3.1,2.6c3.2,0,3.4-1.7,3.5-5.3l0-1.1c0,0,0,0,0,0c0-0.5,0-0.7,0.9-0.8l0.1,0l0-0.4l-0.2,0l-1.3,0l-1,0l-0.4,0l0,0.1
		v0.4h0.1c0.4,0,0.8,0,0.9,0.2c0.2,0.2,0.3,1.2,0.3,1.7v0.7c0,2.5-0.2,4-2.5,4c-2.1,0-2.1-1.7-2.1-2.5v-1.4c0-2.6,0.1-2.6,1.3-2.7
		l0.1,0v-0.4l-0.1,0C71.7,40.5,71,40.5,70.6,40.5z"/>
	<path id="Shield__x0026__Scroll" class="st0" d="M44.9,66.3l-0.4-0.8l-0.5-1c-0.4-0.7-1-1.2-1.7-1.3c1.6-2.9,2.8-6.3,2.8-10.3V40.4
		c0-0.1-0.1-0.1-0.1-0.1H32.6h0H20.2c-0.1,0-0.1,0.1-0.1,0.1v12.5c0,4,1.2,7.4,2.8,10.3c-0.7,0.1-1.3,0.5-1.7,1.3l-0.5,1l-0.4,0.8
		c-0.3,0.7-0.7,2,0.7,3.7c1.1,1.4,3.4,2.8,6.1,3.9l0.1,0.1c0.2,0.1,0.5,0.2,0.7,0.3c-0.2,0.2-0.5,0.5-0.8,0.7L26.8,75
		c-0.1,0-0.1,0.1-0.2,0.1c0,0,0,0,0,0c0,0,0,0,0,0.1c-0.2,0.2-0.4,0.5-0.4,1v2.4c0,1,1.4,1.3,2.7,1.3h7.3c1.3,0,2.7-0.4,2.7-1.3
		v-2.4c0-0.5-0.1-0.8-0.4-1c0,0,0,0,0-0.1c0,0,0,0,0,0c0,0-0.1-0.1-0.2-0.1l-0.2-0.2c-0.2-0.2-0.6-0.5-0.8-0.7
		c0.2-0.1,0.4-0.2,0.7-0.3l0.1-0.1c2.7-1.1,5-2.5,6.1-3.9C45.5,68.3,45.2,66.9,44.9,66.3z M20.3,50.2h24.5c0,1.6,0,2.8,0,2.8
		c0,12.4-11.5,19.4-12.3,19.9c-0.8-0.5-12.2-7.5-12.2-19.9V50.2z M43.3,64.2c0.3,0.5,0.3,1.2,0,2c-0.1,0.1-0.1,0.2-0.2,0.4l-0.9-1.3
		c0,0-0.1-0.1-0.1-0.1c-0.1,0-0.1,0-0.1,0.1c-0.1,0.2-0.3,0.4-0.5,0.5c-0.3,0.1-0.6,0.1-0.8,0c0.5-0.7,1.1-1.5,1.6-2.3
		c0,0,0.1,0,0.1,0c0,0,0,0,0,0C42.7,63.5,43.1,63.8,43.3,64.2z M35.4,76.5l0.2,0.2h-6l0.2-0.2c0.3-0.3,0.6-0.6,0.6-1.4v-1.7
		c0-1.7-1.4-2.3-3.1-3.1c-0.6-0.3-1.2-0.5-1.8-0.9c-0.5-0.3-1.3-0.8-2-1.4l1.3-1.9c3.5,4.5,7.6,6.9,7.7,6.9c0,0,0.1,0,0.1,0
		c0.1,0,4.2-2.4,7.7-6.9l1.3,1.9c-0.7,0.6-1.5,1.1-2,1.4c-0.6,0.3-1.2,0.6-1.8,0.9c-1.7,0.8-3.1,1.4-3.1,3.1v1.7
		C34.8,75.9,35.1,76.2,35.4,76.5z M23.3,67.9c-0.4-0.4-0.8-0.7-1.1-1.1c0.2-0.2,0.7-1,0.8-1.2c0.1,0.2,0.3,0.4,0.6,0.5
		c0.3,0.1,0.6,0.1,0.9,0.1L23.3,67.9z M40.7,66.1c0.3,0.1,0.6,0,0.9-0.1c0.3-0.1,0.4-0.3,0.6-0.5c0.2,0.2,0.7,1,0.8,1.2
		c-0.3,0.4-0.7,0.8-1.1,1.1L40.7,66.1z M20.3,40.6c0.3,0,24.2,0,24.5,0c0,0.2,0,5.7,0,9.3H20.3C20.3,46.3,20.3,40.7,20.3,40.6z
		 M21.9,64.2c0.2-0.4,0.6-0.6,1-0.7c0,0,0,0,0,0c0,0,0.1,0,0.1,0c0.5,0.8,1,1.6,1.6,2.3c-0.2,0.1-0.5,0.1-0.8,0
		c-0.3-0.1-0.5-0.3-0.5-0.5c0-0.1-0.1-0.1-0.1-0.1c-0.1,0-0.1,0-0.1,0.1l-0.9,1.3c-0.1-0.1-0.1-0.2-0.2-0.4
		C21.6,65.4,21.6,64.7,21.9,64.2z M27.3,73.6l-0.1-0.1c-2.7-1.1-4.9-2.5-6-3.8c-1.2-1.5-1-2.7-0.6-3.4l0.4-0.8l0.5-1c0,0,0,0,0,0
		c-0.1,0.4-0.1,1,0.2,1.6c0.5,1.3,2.4,2.7,3.8,3.5c0.6,0.3,1.2,0.6,1.8,0.9c1.6,0.7,2.9,1.3,2.9,2.8v1.7c0,0.2,0,0.3,0,0.4
		c0-0.2-0.1-0.4-0.3-0.5C29.3,74.4,28.3,74.1,27.3,73.6z M26.8,75.5C26.8,75.5,26.8,75.5,26.8,75.5C26.8,75.4,26.8,75.4,26.8,75.5
		c0.1-0.1,0.2-0.2,0.2-0.2l0.2-0.2c0.3-0.2,0.7-0.5,0.9-0.8c0.6,0.3,1.1,0.5,1.5,0.9c0.3,0.3,0.3,0.7,0.1,0.9h0c0,0-0.1,0.1-0.1,0.1
		l-0.4,0.4h-0.3c-1.2,0-2-0.4-2.2-0.8C26.7,75.7,26.7,75.6,26.8,75.5z M38.6,76.1c0,0.1,0,0.1,0,0.2v2.4c0,0.8-1.3,1-2.4,1h-7.3
		c-1.1,0-2.4-0.3-2.4-1v-2.4c0-0.1,0-0.1,0-0.2c0.3,0.4,1.1,0.9,2.4,0.9h7.3h0C37.5,76.9,38.3,76.5,38.6,76.1z M37.9,75.1l0.2,0.2
		c0.1,0.1,0.1,0.1,0.2,0.2c0,0,0,0,0,0c0,0,0,0,0,0c0.1,0.1,0.1,0.2,0,0.3c-0.2,0.4-1,0.8-2.2,0.8h0h0H36l-0.4-0.4
		c0,0-0.1-0.1-0.1-0.1c0,0,0,0,0,0c-0.2-0.2-0.2-0.6,0.1-0.9c0.3-0.4,0.9-0.7,1.5-0.9C37.3,74.5,37.6,74.8,37.9,75.1z M44,69.8
		c-1,1.3-3.3,2.7-6,3.8l-0.1,0c-1.1,0.4-2,0.8-2.5,1.4c-0.1,0.1-0.2,0.3-0.3,0.5c0-0.1,0-0.3,0-0.4v-1.7c0-1.5,1.3-2.1,2.9-2.8
		c0.6-0.3,1.2-0.5,1.8-0.9c1.4-0.8,3.2-2.2,3.8-3.5c0.3-0.7,0.3-1.2,0.2-1.6c0,0,0,0,0,0l0.5,1l0.4,0.8C45,67.1,45.2,68.3,44,69.8z"
		/>
	<path id="Text_1_" class="st1" d="M24.6,70c0-0.1,0.1-0.1,0.1-0.2c-0.2-0.1-0.4-0.3-0.6-0.4c0,0.1-0.1,0.1-0.1,0.2
		c0,0,0.1,0.1,0.1,0.1c-0.2,0.4-0.4,0.8-0.6,1.3c0,0-0.1-0.1-0.1-0.1c0,0.1-0.1,0.1-0.1,0.2c0.3,0.2,0.7,0.4,1,0.6
		c0.1-0.1,0.2-0.2,0.3-0.4c0,0,0,0,0,0c0,0-0.1-0.1-0.1-0.1c-0.1,0.1-0.2,0.2-0.3,0.2c-0.1,0-0.3-0.1-0.4-0.2c0-0.1,0.5-1,0.6-1.3
		C24.5,69.9,24.6,70,24.6,70L24.6,70z M23.1,70.1c0.1-0.1,0.2-0.3,0.2-0.4c0,0-0.1-0.1-0.1-0.1c0,0-0.1,0.1-0.1,0.1
		c0,0-0.2-0.2-0.3-0.2c0.1-0.2,0.2-0.4,0.3-0.5c0.1,0.1,0.3,0.2,0.3,0.3c0,0.1-0.1,0.2-0.1,0.3c0,0,0.1,0.1,0.1,0.1
		c0.1-0.1,0.1-0.3,0.2-0.4c-0.3-0.2-0.6-0.5-0.9-0.7c0,0.1-0.1,0.1-0.1,0.2c0,0,0.1,0.1,0.1,0.1c-0.2,0.4-0.4,0.8-0.6,1.2
		c0,0-0.1-0.1-0.1-0.1c0,0.1-0.1,0.1-0.1,0.2c0.3,0.3,0.6,0.5,0.9,0.7c0.1-0.1,0.2-0.3,0.3-0.4c0,0,0,0,0,0c0,0-0.1-0.1-0.1-0.1
		c0,0-0.2,0.2-0.2,0.2c-0.1,0-0.3-0.2-0.4-0.3c0-0.1,0.2-0.4,0.3-0.5c0.1,0.1,0.2,0.1,0.3,0.2c0,0,0,0.1-0.1,0.2
		C23,70.1,23,70.1,23.1,70.1L23.1,70.1z M28.4,71.7c-0.4-0.2-0.9-0.4-1.4-0.6c-0.1,0.1-0.2,0.3-0.2,0.4c0.1,0,0.1,0.1,0.2,0.1
		c0.1-0.1,0.1-0.2,0.2-0.2c0.1,0,0.2,0.1,0.3,0.1c-0.2,0.4-0.4,0.9-0.6,1.3c-0.1,0-0.1-0.1-0.2-0.1c0,0.1,0,0.1-0.1,0.2
		c0.2,0.1,0.5,0.2,0.7,0.3c0-0.1,0-0.1,0.1-0.2c-0.1,0-0.1-0.1-0.2-0.1c0.2-0.4,0.4-0.9,0.6-1.3c0.1,0,0.2,0.1,0.3,0.2
		C28,71.9,28,72,28,72c0,0,0.1,0.1,0.2,0.1C28.2,72,28.3,71.9,28.4,71.7L28.4,71.7z M26.8,71c-0.2-0.1-0.4-0.2-0.6-0.3
		c0,0.1-0.1,0.1-0.1,0.1c0.1,0,0.1,0.1,0.2,0.1c-0.2,0.4-0.5,1.4-1,1.1c-0.3-0.2-0.2-0.5,0-0.8c0.1-0.2,0.2-0.4,0.3-0.6
		c0.1,0,0.1,0.1,0.2,0.1c0-0.1,0-0.1,0.1-0.2c-0.2-0.1-0.4-0.2-0.6-0.3c0,0.1-0.1,0.1-0.1,0.2c0,0,0.1,0,0.1,0.1
		c0,0.1-0.1,0.3-0.2,0.4C25,71.3,24.8,71.7,25,72c0,0.1,0.1,0.1,0.2,0.2c0.1,0.1,0.3,0.1,0.4,0.1c0.5,0,0.8-0.7,1-1.3
		c0,0,0.1,0,0.1,0.1C26.8,71.1,26.8,71,26.8,71L26.8,71z M22.5,68.4c0,0,0.1,0.1,0.1,0.1c0-0.1,0-0.1,0.1-0.2
		c-0.1-0.1-0.3-0.3-0.4-0.4c0,0.1-0.1,0.1-0.1,0.2c0,0.1,0.1,0.1,0.2,0.2c-0.1,0.2-0.7,0.8-0.7,0.8c0,0,0,0,0,0c0,0,0.2-1.3,0.2-1.4
		c0,0.1,0.1,0.1,0.1,0.2c0-0.1,0.1-0.1,0.1-0.2c-0.2-0.2-0.3-0.4-0.4-0.6c0,0-0.1,0.1-0.1,0.1c0,0,0.1,0.1,0.1,0.1
		c0,0.2-0.3,1.7-0.3,1.9c0.1,0.1,0.1,0.1,0.2,0.2C21.7,69.2,22.4,68.5,22.5,68.4L22.5,68.4z M38.4,71.9
		C38.4,71.9,38.4,71.9,38.4,71.9c0-0.3,0-0.5,0.1-0.8c0,0,0,0,0,0c0.1,0.2,0.2,0.4,0.3,0.6C38.7,71.8,38.5,71.8,38.4,71.9L38.4,71.9
		z M39.8,71.7c0,0.1,0.1,0.2,0,0.3c0,0.1-0.4,0.3-0.5,0.3c-0.1-0.2-0.1-0.4-0.2-0.5c0.1,0,0.4-0.2,0.4-0.2c0,0,0.1,0.1,0.1,0.1
		c0.1,0,0.1-0.1,0.2-0.1c-0.1-0.2-0.1-0.3-0.2-0.5c-0.1,0-0.1,0.1-0.2,0.1c0,0.1,0,0.1,0,0.2c0,0.1-0.3,0.2-0.4,0.2
		c-0.1-0.2-0.2-0.4-0.3-0.6c0.1-0.1,0.3-0.2,0.5-0.2c0.1,0,0.1,0.1,0.2,0.2c0.1,0,0.1-0.1,0.2-0.1c0,0-0.2-0.3-0.2-0.4
		c-0.3,0.2-0.7,0.4-1.1,0.5c0,0.6-0.1,1.2-0.2,1.8c0,0-0.1,0.1-0.1,0.1c0,0.1,0,0.1,0.1,0.2c0.2-0.1,0.4-0.2,0.6-0.2
		c0-0.1,0-0.1-0.1-0.2c-0.1,0-0.1,0.1-0.2,0.1c0-0.2,0-0.4,0-0.6c0.1-0.1,0.3-0.1,0.5-0.2c0.1,0.2,0.2,0.4,0.2,0.5
		c-0.1,0-0.1,0.1-0.2,0.1c0,0.1,0.1,0.1,0.1,0.2c0.4-0.2,0.8-0.4,1.1-0.6c0-0.1-0.1-0.3-0.1-0.4C39.9,71.7,39.9,71.7,39.8,71.7
		L39.8,71.7z M41.1,69.6c0,0,0.1-0.1,0.1-0.1c0-0.1-0.1-0.1-0.1-0.2c-0.2,0.1-0.4,0.2-0.5,0.4c0,0.1,0.1,0.1,0.1,0.2
		c0.1,0,0.1-0.1,0.2-0.1c0.1,0.3,0.1,1,0.1,1.2c0,0.1,0,0.1,0,0.2c0,0,0,0,0,0c0,0-0.2-0.2-0.2-0.2l-0.4-0.5
		c-0.1-0.1-0.1-0.2-0.2-0.2c0.1,0,0.1-0.1,0.2-0.1c0-0.1,0-0.1-0.1-0.2c-0.2,0.1-0.4,0.3-0.7,0.4c0,0.1,0,0.1,0.1,0.2
		c0,0,0.1,0,0.1-0.1c0.1,0.1,0.2,0.2,0.3,0.3c0.2,0.2,0.4,0.4,0.6,0.6c0.1,0.1,0.2,0.2,0.3,0.3c0.1,0,0.1-0.1,0.2-0.1
		c0-0.4-0.1-0.8-0.1-1.3C41.2,70,41.1,69.8,41.1,69.6L41.1,69.6z M36.2,78.3c0-0.2,0-0.5,0-0.7c0.1,0,0.2,0,0.3,0
		c0.2,0.1,0.3,0.4,0.1,0.6C36.5,78.3,36.3,78.3,36.2,78.3L36.2,78.3z M36.9,78.9c-0.1-0.1-0.2-0.4-0.3-0.5c0,0,0,0,0,0
		c0.3-0.1,0.5-0.6,0.2-0.8c-0.2-0.2-0.7-0.1-1.1-0.1c0,0.1,0,0.1,0,0.2v0c0.1,0,0.1,0,0.2,0V79c-0.1,0-0.1,0-0.2,0
		c0,0.1,0,0.1,0,0.2v0h0.7c0-0.1,0-0.1,0-0.2c-0.1,0-0.1,0-0.2,0c0-0.2,0-0.4,0-0.5c0.1,0,0.2,0,0.2,0c0.2,0.1,0.3,0.6,0.4,0.7
		c0,0,0.4,0,0.4,0l0-0.2c-0.1,0-0.1,0-0.2,0C37,79,37,78.9,36.9,78.9L36.9,78.9z M32.9,78.8c0,0.1-0.2,0.2-0.3,0.2
		c-0.1,0-0.2,0-0.2,0c0,0,0-0.1,0-0.1c0-0.1,0-0.4,0-0.5C32.6,78.4,33,78.5,32.9,78.8L32.9,78.8z M32.3,77.6c0.2,0,0.3,0,0.4,0.1
		c0,0,0.1,0.1,0,0.2c0,0.2-0.2,0.3-0.5,0.3C32.3,78,32.3,77.8,32.3,77.6L32.3,77.6z M32.8,78.3L32.8,78.3L32.8,78.3
		c0.3-0.1,0.5-0.5,0.1-0.7c-0.2-0.1-0.7-0.1-1.1-0.1v0.2c0.1,0,0.1,0,0.2,0V79c-0.1,0-0.1,0-0.2,0c0,0.1,0,0.1,0,0.2
		c0.4,0,0.9,0.1,1.1-0.1c0.2-0.1,0.3-0.4,0.2-0.6C33.1,78.3,33,78.3,32.8,78.3L32.8,78.3z M30.5,78.3c0-0.2,0-0.5,0-0.7
		c0.1,0,0.2,0,0.3,0c0.2,0.1,0.3,0.4,0.1,0.6C30.9,78.3,30.7,78.3,30.5,78.3L30.5,78.3z M31.3,78.9c-0.1-0.1-0.2-0.4-0.3-0.5
		c0,0,0,0,0,0c0.3-0.1,0.5-0.6,0.2-0.8c-0.2-0.2-0.7-0.1-1.1-0.1c0,0.1,0,0.1,0,0.2v0c0.1,0,0.1,0,0.2,0V79c-0.1,0-0.1,0-0.2,0
		c0,0.1,0,0.1,0,0.2v0h0.7c0-0.1,0-0.1,0-0.2c-0.1,0-0.1,0-0.2,0c0-0.2,0-0.4,0-0.5c0.1,0,0.2,0,0.2,0c0.2,0.1,0.3,0.6,0.4,0.7
		c0,0,0.4,0,0.4,0l0-0.2c-0.1,0-0.1,0-0.2,0C31.4,79,31.4,78.9,31.3,78.9L31.3,78.9z M28.6,78.5c0.1-0.2,0.2-0.5,0.2-0.7
		c0,0,0,0,0,0l0.2,0.7H28.6L28.6,78.5z M29.1,77.4c-0.1,0-0.2,0-0.3,0c-0.2,0.5-0.4,1.1-0.6,1.6c0,0-0.1,0-0.2,0v0.2h0.6V79
		c-0.1,0-0.1,0-0.2,0c0-0.1,0.1-0.2,0.1-0.3c0.2,0,0.4,0,0.6,0c0,0.1,0.1,0.2,0.1,0.3c-0.1,0-0.1,0-0.2,0v0.2h0.7V79
		c-0.1,0-0.1,0-0.2,0C29.4,78.5,29.2,78,29.1,77.4L29.1,77.4z M42.7,70.2c-0.4,0.3-0.8-0.2-0.9-0.6c0-0.2,0-0.4,0.1-0.6
		c0,0,0.1-0.1,0.1-0.1c0.1-0.1,0.2-0.1,0.3-0.1C42.7,68.8,43.2,69.8,42.7,70.2L42.7,70.2z M42.9,68.8c-0.2-0.2-0.5-0.3-0.9,0
		c-0.1,0.1-0.1,0.1-0.2,0.2c-0.2,0.2-0.2,0.4-0.2,0.6c0,0.1,0,0.2,0,0.3c0,0.1,0.1,0.3,0.2,0.4c0.2,0.3,0.5,0.4,0.9,0.3
		C43.3,70.2,43.4,69.2,42.9,68.8L42.9,68.8z M34.5,79c-0.5,0.1-0.6-0.5-0.5-0.9c0-0.2,0.1-0.4,0.3-0.5c0,0,0.1,0,0.1,0
		c0.1,0,0.2,0,0.3,0.1C35.1,77.9,35.1,79,34.5,79L34.5,79z M34.4,77.4c-0.1,0-0.1,0-0.2,0c-0.2,0.1-0.4,0.2-0.5,0.4
		c0,0.1-0.1,0.2-0.1,0.3c0,0.1,0,0.3,0,0.4c0.1,0.4,0.3,0.6,0.7,0.7c0.7,0.1,1.2-0.7,0.9-1.3C35.1,77.6,34.9,77.4,34.4,77.4
		L34.4,77.4z"/>
	<path class="st0" d="M20.3,50L45,50c0,1.6,0,2.8,0,2.8c0,12.4-11.6,19.7-12.4,20.1c-0.8-0.5-12.4-7.5-12.4-19.9L20.3,50z
		 M37.3,60.6c-2.3-2.7-5.5-1.4-5.5-1.4c-0.6,0.1-1.1,0.4-1.5,0.6L30,59.9l-0.4,0l-0.7,0.1c-0.4,0.1-0.8,0.3-1.4,0.7l-0.4,0.2
		c-0.7,0.4-0.8,0.7-0.9,0.8c-0.1,0.1-0.2,0.2-0.3,0.3c0,0,0,0,0,0.1c0,0.1,0,0.2,0.1,0.3c0.1,0.4,0.5,0.3,0.5,0.3c0,0,0.1,0,0.1,0
		c0.2-0.1,0.3,0,0.4,0.2l0,0c0,0.1-0.2,0.2-0.2,0.2c0,0-0.1,0-0.1,0.1c0.1,0.3,0.6,0.2,0.8,0.2l0.1,0l0.2,0c0.3,0,0.7-0.1,1,0
		c0.2,0,0.3,0.1,0.5,0.2c0,0.1,0,0.2-0.1,0.2l-0.2,0c-0.3,0.1-0.8,0.1-1,0.5c-0.2,0.4-0.1,0.7,0,0.8l0.1,0.1c0.1,0,0.2-0.1,0.4-0.2
		c0.3-0.2,0.3-0.3,0.3-0.3c0-0.1,0.1-0.2,0.1-0.2c0,0,0.1,0,0.1,0c0.2,0.1,0.7,0.2,1,0.1c0,0.1-0.1,0.4-0.3,0.5
		c-0.1,0.1-0.3,0.1-0.4,0.1c-0.1,0-0.3,0-0.3,0.1c-0.1,0.1-0.3,0.4-0.4,0.5c0,0,0,0.1,0,0.1l0,0.1c0,0,0.1,0,0.1,0l0.9,0l0.1,0
		c0.3,0,0.6,0,0.8-0.2l0.1-0.1l0.5-0.4l0.5-0.4l0.2-0.2c0,0,0.1-0.1,0.1-0.2c0.2,0.1,0.6,0.4,0.8,0.4c-0.1,0-0.3,0-0.6,0.1
		c-0.3,0.1-0.4,0.2-0.7,0.5c0,0,0,0.1,0,0.1c0,0,0,0,0,0.1c0.1,0.1,0.5,0.3,0.6,0.4c0.1,0,0.3,0,0.4-0.1l0.3-0.1c0.1,0,1.2,0,2,0
		l-0.4,0.4c-0.4,0.3-1,0.7-1.7,1.2c-0.7,0.6-1.3,1.4-1.3,2c0,0.1-0.1,0.2-0.1,0.2c0,0.1,0.2,0.3,0.5,0.4c1.5,0.2,2.3-0.8,3-1.5
		l0.2-0.2c0.5-0.5,0.9-1.2,1.1-1.6c0.1-0.2,0.2-0.4,0.2-0.4c0.7-0.5,1.5-1.8,1.7-3.2C38.2,62.3,37.9,61.3,37.3,60.6z M43,51.9h-0.5
		l-0.5-0.3h0c0,0-0.1,0-0.1,0h-0.7c-0.1,0-0.3-0.1-0.4-0.2c-0.2-0.2-0.6-0.4-1.2-0.4c-0.7,0-1,0.3-1.2,0.5c-0.2-0.2-0.5-0.5-1.1-0.5
		c-0.6,0-0.9,0.2-1.2,0.4c-0.2,0.1-0.3,0.2-0.4,0.2H35c0,0-0.1,0-0.1,0l-0.5,0.3h-0.5c-0.1,0-0.1,0.1-0.1,0.1v4.8
		c0,0.1,0.1,0.1,0.1,0.1c0,0,3.6,0,3.7,0c0.1,0.1,0.3,0.2,0.6,0.3c0.1,0,0.4,0,0.5,0c0.3-0.1,0.5-0.2,0.6-0.3c0.1,0,3.7,0,3.7,0
		c0.1,0,0.1-0.1,0.1-0.1V52C43.1,51.9,43,51.9,43,51.9z M31.3,51.9h-0.5l-0.5-0.3c0,0-0.1,0-0.1,0h-0.7c-0.1,0-0.3-0.1-0.4-0.2
		c-0.2-0.2-0.6-0.4-1.2-0.4c-0.7,0-1,0.3-1.2,0.5c-0.2-0.2-0.5-0.5-1.1-0.5c-0.6,0-0.9,0.2-1.2,0.4c-0.2,0.1-0.3,0.2-0.4,0.2h-0.7
		c0,0-0.1,0-0.1,0l-0.5,0.3h-0.5C22,51.9,22,51.9,22,52v4.8c0,0.1,0.1,0.1,0.1,0.1c0,0,3.6,0,3.7,0c0.1,0.1,0.3,0.2,0.6,0.3
		c0.1,0,0.4,0,0.5,0c0.3-0.1,0.5-0.2,0.6-0.3c0.1,0,3.7,0,3.7,0c0.1,0,0.1-0.1,0.1-0.1V52C31.4,51.9,31.3,51.9,31.3,51.9z"/>
	<g id="Beaver_3_">
		<path class="st0" d="M37.3,60.5c-2.3-2.8-5.6-1.4-5.6-1.4c-0.6,0.1-1.1,0.4-1.5,0.6l-0.3,0.1c0,0-0.4,0-0.4,0L28.8,60
			c-0.4,0.1-0.8,0.3-1.4,0.7L27,60.9c-0.7,0.4-0.9,0.7-0.9,0.8c-0.1,0.1-0.2,0.2-0.3,0.3c0,0,0,0.1,0,0.1c0,0.1,0,0.2,0.1,0.3
			c0.1,0.4,0.5,0.4,0.5,0.4c0,0,0.1,0,0.1,0c0.2-0.1,0.3-0.1,0.4,0.1l0,0c0,0.1-0.2,0.1-0.2,0.2c0,0-0.1,0.1-0.1,0.1
			c0.1,0.3,0.6,0.3,0.8,0.3l0.1,0l0.2,0c0.3,0,0.8-0.1,1-0.1c0.2,0,0.3,0.1,0.5,0.2c0,0.1-0.1,0.1-0.1,0.1l-0.2,0
			c-0.3,0.1-0.8,0.1-0.9,0.5c-0.2,0.4-0.1,0.7,0,0.8l0.1,0.2c0.1,0,0.3-0.1,0.4-0.1c0.3-0.2,0.3-0.3,0.4-0.4c0-0.1,0.1-0.2,0.1-0.2
			c0,0,0.1,0,0.1,0c0.2,0.1,0.6,0.3,0.9,0.1c0,0.1-0.1,0.2-0.2,0.3c-0.1,0.1-0.3,0.1-0.5,0.1c-0.1,0-0.3,0-0.3,0.1
			c-0.1,0.1-0.4,0.5-0.4,0.6c0,0,0,0.1,0,0.1l0,0.1c0,0,0.1,0,0.1,0l0.9,0l0.1,0c0.3,0,0.6,0,0.8-0.1l0.1-0.1l0.5-0.4l0.5-0.4
			l0.2-0.2c0,0,0.1-0.1,0.1-0.2c0.2,0.1,0.4,0.2,0.6,0.3c-0.1,0-0.2,0-0.5,0.1c-0.3,0.1-0.5,0.3-0.6,0.6c0,0,0,0,0,0.1
			c0,0,0,0.1,0,0.1c0.1,0.1,0.5,0.3,0.6,0.4c0.1,0,0.3,0,0.4-0.1l0.3-0.1c0.1,0,1.1,0,1.9,0l-0.4,0.3c-0.4,0.3-1,0.7-1.7,1.3
			c-0.7,0.6-1.3,1.5-1.3,2.1c0,0.1,0,0.1,0,0.2c0,0.1,0.2,0.3,0.5,0.4c1.5,0.2,2.4-0.8,3.1-1.6l0.2-0.2c0.5-0.5,0.9-1.2,1.1-1.6
			c0.1-0.2,0.2-0.4,0.2-0.4c0.7-0.5,1.6-1.8,1.8-3.2C38.3,62.3,38,61.3,37.3,60.5z M29.9,64.6c-0.2,0.2-0.6,0-0.7-0.1l-0.2,0
			c-0.1,0-0.3,0.1-0.3,0.3c0,0-0.1,0.1-0.1,0.1c0,0,0-0.1-0.1-0.2c0-0.1,0-0.3,0-0.3c0,0-0.2,0.3-0.1,0.6c-0.1,0-0.1,0.1-0.1,0.1
			c0,0-0.1-0.2-0.1-0.4c0-0.1,0-0.2,0.1-0.3c0.1-0.3,0.5-0.4,0.8-0.4l0.2-0.1c0.1,0,0.2-0.1,0.2-0.2c0.1,0.1,0.2,0.2,0.2,0.2
			C29.7,64.1,29.8,64.4,29.9,64.6C29.9,64.6,29.9,64.6,29.9,64.6z M32.7,65.9c0,0-0.3,0.1-0.3,0.1c-0.1,0-0.3,0.1-0.3,0.1
			c0,0,0,0,0,0c0-0.1,0.1-0.2,0.2-0.3c0.2-0.1,0.5-0.2,0.4-0.3c-0.1-0.1-0.4,0-0.5,0c-0.2,0.1-0.3,0.3-0.4,0.4
			c-0.1,0-0.1-0.1-0.2-0.1c0.1-0.2,0.3-0.4,0.5-0.5c0.3-0.1,0.4-0.1,0.4-0.1c0.1,0,1,0.2,1.2,0.2c0,0,0,0,0,0c0,0,0.1,0,0.1,0.1
			c0.4,0.2,0.8,0.3,1,0.3c0,0.1,0,0.1-0.1,0.2C34.4,65.9,32.8,65.9,32.7,65.9z M37.9,63.3c-0.2,1.3-1,2.6-1.7,3.1
			c-0.1,0-0.1,0.2-0.3,0.5c-0.2,0.4-0.6,1-1.1,1.6l-0.2,0.2c-0.7,0.8-1.5,1.7-2.9,1.5c-0.2,0-0.3-0.1-0.3-0.2
			c-0.1-0.4,0.3-1.4,1.2-2.1c0.7-0.6,1.3-1,1.7-1.3l0.5-0.4c0,0,0.1-0.1,0.1-0.1c0,0,0,0,0,0c0.1-0.2,0.2-0.4,0.2-0.4
			c0,0,0-0.1,0-0.1c0,0,0,0-0.1,0c0,0-0.6,0-1.1-0.3c-0.4-0.2-0.6-0.5-0.8-0.9c-0.2-0.6,0.1-1.1,0.4-1.5c0.2-0.3,0.5-0.6,0.4-1
			c0-0.1-0.1-0.1-0.1-0.1c0,0-0.1,0.1-0.1,0.1c0,0,0,0,0,0c0,0,0,0,0,0.1c0,0.2-0.2,0.5-0.4,0.7c-0.3,0.3-0.6,0.7-0.6,1.2
			c0,0.1,0,0.3,0.1,0.5c0.1,0.3,0.2,0.5,0.4,0.7c-0.4-0.1-0.9-0.3-1.3-0.6c0,0,0,0-0.1,0c0.1-0.4,0-1,0-1.3c0-0.1-0.1-0.1-0.1-0.1
			c-0.1,0-0.1,0.1-0.1,0.1c0.1,0.6,0.1,1.3,0,1.4l-0.2,0.2L31,65.2l-0.5,0.4l-0.2,0.1c-0.1,0.1-0.5,0.1-0.7,0.1l-0.1,0
			c0,0-0.2,0-0.3,0c0-0.1,0.1-0.2,0-0.2c-0.1,0-0.2,0.1-0.3,0.2c-0.1,0-0.2,0-0.2,0c0.1-0.2,0.2-0.4,0.3-0.4l0.2,0
			c0.2,0,0.4,0,0.6-0.1c0.3-0.2,0.3-0.4,0.4-0.5c0-0.1-0.2-0.8-0.3-0.9c-0.1-0.2-0.6-0.6-1-0.6c-0.3-0.1-0.8,0-1.1,0.1l-0.2,0
			c0,0-0.1,0-0.1,0c-0.1,0-0.4,0-0.5-0.1c0.1,0,0.2-0.1,0.2-0.2l0-0.2c-0.2-0.4-0.5-0.3-0.6-0.3l-0.1,0c0,0-0.2,0-0.3-0.3l0.2-0.1
			c0,0,0.1-0.1,0-0.1s-0.1-0.1-0.1,0L26,62.2c0,0,0-0.1,0-0.1c0-0.1,0.1-0.2,0.2-0.2c0,0,0,0,0.1-0.1c0,0,0.1-0.3,0.8-0.7l0.4-0.2
			c0.6-0.3,1-0.6,1.4-0.6l1.1-0.1l0.3-0.2c0.3-0.2,0.8-0.4,1.5-0.6c0.1,0,3.2-1.3,5.4,1.3C37.8,61.4,38,62.3,37.9,63.3z"/>
		<path class="st0" d="M28.7,60.6c-0.1-0.1-0.2-0.1-0.3,0c-0.2,0.1-0.3,0.3-0.1,0.3c0.1,0.1,0.2-0.1,0.2-0.1c0,0,0.1,0,0.1,0
			c0.1,0,0.1,0.1,0.1,0.1c0,0,0,0.1,0.1,0.1C28.9,61.1,29,60.7,28.7,60.6z"/>
		<path class="st0" d="M27,61.9c-0.1,0.3,0.2,0.7,0.3,0.6c0.1-0.1-0.2-0.3-0.1-0.5c0.1-0.2,0.7-0.4,0.7-0.5
			C28,61.4,27.1,61.6,27,61.9z"/>
		<path class="st0" d="M34.4,67.3c-0.3,0-0.6,0-0.6,0.1c0,0.1,0.3,0.2,0.6,0.2c0.2,0,0.6,0,0.5-0.2C34.9,67.3,34.6,67.3,34.4,67.3z"
			/>
		<path class="st0" d="M33.7,67.9c-0.3,0-0.7,0-0.7,0.1c0,0.1,0.3,0.2,0.7,0.2c0.2,0,0.7,0,0.6-0.2C34.3,67.9,33.9,67.9,33.7,67.9z"
			/>
		<path class="st0" d="M33.1,68.6c-0.3,0-0.6,0-0.6,0.1c0,0.1,0.3,0.2,0.6,0.2c0.2,0,0.6,0,0.6-0.1C33.7,68.6,33.3,68.6,33.1,68.6z"
			/>
		<path class="st0" d="M32.5,69.3c-0.2,0-0.5,0-0.5,0.1c0,0.1,0.2,0.1,0.5,0.1c0.2,0,0.5,0,0.5-0.1C33,69.3,32.7,69.3,32.5,69.3z"/>
		<path class="st0" d="M27.2,61.5L27.2,61.5c0.2-0.1,0.2-0.1,0.2-0.2c0-0.1-0.1-0.1-0.2-0.1l-0.1,0c-0.1,0-0.1,0.1-0.1,0.2
			C27,61.5,27.1,61.6,27.2,61.5z"/>
		<path class="st0" d="M31.7,60c0,0-0.1-0.1-0.1,0l-0.8,0.3c-0.1,0-0.1,0.1-0.1,0.2c0,0.1,0.1,0.1,0.2,0.1l0.7-0.4
			C31.7,60.1,31.7,60.1,31.7,60z"/>
		<path class="st0" d="M31.7,60.8c0,0,0.1-0.1,0-0.1c0,0-0.1-0.1-0.1-0.1L31,60.8c-0.1,0-0.1,0.1-0.1,0.2c0,0.1,0.1,0.2,0.2,0.1
			L31.7,60.8z"/>
		<path class="st0" d="M31.7,61.4l-0.5,0c-0.1,0-0.1,0.1-0.1,0.2c0,0.1,0.1,0.1,0.1,0.1l0.5-0.1c0,0,0.1-0.1,0.1-0.1
			C31.8,61.4,31.7,61.4,31.7,61.4z"/>
		<path class="st0" d="M31.6,62.1L31.2,62c-0.1,0-0.1,0.1-0.1,0.1c0,0.1,0,0.1,0.1,0.1l0.4,0C31.6,62.3,31.7,62.2,31.6,62.1
			C31.7,62.1,31.6,62.1,31.6,62.1z"/>
		<path class="st0" d="M34.9,59.6c-0.1,0-0.2,0-0.2,0.1c0,0.1,0,0.2,0.1,0.2c0,0,0.4,0.1,0.7,0.3c0.1,0,0.1,0,0.2-0.1
			c0-0.1,0-0.1,0-0.2C35.3,59.7,34.9,59.6,34.9,59.6z"/>
		<path class="st0" d="M35.1,60.3c-0.1,0-0.1,0-0.2,0.1c0,0.1,0,0.1,0.1,0.2c0,0,0.3,0.1,0.6,0.2c0.1,0,0.1,0,0.1,0
			c0-0.1,0-0.1,0-0.1C35.3,60.3,35.1,60.3,35.1,60.3z"/>
		<path class="st0" d="M35.1,60.9c-0.1,0-0.1,0-0.1,0.1c0,0.1,0,0.1,0.1,0.1c0,0,0.3,0.1,0.4,0.1c0,0,0.1,0,0.1,0c0,0,0-0.1,0-0.1
			C35.2,60.9,35.2,60.9,35.1,60.9z"/>
		<path class="st0" d="M35.1,61.5c0,0-0.1,0-0.1,0.1c0,0.1,0,0.1,0.1,0.1c0,0,0.2,0,0.3,0.1c0,0,0.1,0,0.1,0c0,0,0-0.1,0-0.1
			C35.3,61.5,35.1,61.5,35.1,61.5z"/>
		<path class="st0" d="M37,61.1c-0.3-0.3-0.4-0.4-0.5-0.4c-0.1,0-0.2,0-0.2,0.1s0,0.2,0.1,0.2c0,0,0.2,0.1,0.4,0.3
			c0.1,0,0.1,0,0.2,0C37,61.2,37,61.1,37,61.1z"/>
		<path class="st0" d="M36.4,61.4c-0.1,0-0.1,0-0.2,0.1c0,0.1,0,0.1,0.1,0.2c0,0,0.1,0,0.3,0.2c0,0,0.1,0,0.1,0c0,0,0-0.1,0-0.1
			C36.5,61.4,36.4,61.4,36.4,61.4z"/>
		<path class="st0" d="M36.2,61.9c-0.1,0-0.1,0-0.1,0c0,0.1,0,0.1,0,0.1c0,0,0.1,0.1,0.2,0.1c0,0,0.1,0,0.1,0c0,0,0-0.1,0-0.1
			C36.4,62,36.3,61.9,36.2,61.9z"/>
		<path class="st0" d="M36,62.4c0,0-0.1,0-0.1,0c0,0,0,0.1,0,0.1c0,0,0,0,0.1,0.1c0,0,0.1,0,0.1,0c0,0,0-0.1,0-0.1
			C36.1,62.4,36,62.4,36,62.4z"/>
		<path class="st0" d="M37.4,62.5c0,0,0.1,0.1,0.1,0c0,0,0.1-0.1,0-0.1c0,0-0.1-0.2-0.1-0.2c0,0-0.1,0-0.1,0c0,0,0,0.1,0,0.1
			C37.2,62.3,37.3,62.4,37.4,62.5z"/>
		<path class="st0" d="M37.1,62.6c0,0-0.1,0-0.1,0c0,0,0,0.1,0,0.1c0,0,0.1,0.1,0.1,0.1c0,0,0.1,0.1,0.1,0c0,0,0-0.1,0-0.1
			C37.1,62.6,37.1,62.6,37.1,62.6z"/>
	</g>
	<g id="Right_Book_2_">
		<path class="st0" d="M43.1,51.8h-0.6L42,51.4h0c0,0-0.1,0-0.1,0h-0.7c-0.1,0-0.3-0.1-0.4-0.2c-0.2-0.2-0.6-0.4-1.2-0.4
			c-0.7,0-1,0.3-1.2,0.5c-0.2-0.2-0.5-0.5-1.2-0.5c-0.6,0-0.9,0.2-1.2,0.4c-0.2,0.1-0.3,0.2-0.4,0.2h-0.7c0,0-0.1,0-0.1,0l-0.5,0.4
			h-0.6c-0.1,0-0.1,0.1-0.1,0.1v5c0,0.1,0.1,0.1,0.1,0.1c0,0,3.7,0,3.8,0c0.1,0.1,0.3,0.2,0.6,0.3c0.1,0,0.4,0,0.5,0
			c0.3-0.1,0.5-0.2,0.6-0.3c0.1,0,3.8,0,3.8,0c0.1,0,0.1-0.1,0.1-0.1v-5C43.2,51.9,43.2,51.8,43.1,51.8z M38.5,51.5
			c0,0,0.2-0.5,1-0.5c0.5,0,0.8,0.2,1,0.4c0.2,0.1,0.4,0.3,0.6,0.3c0,0,0.4,0,0.6,0c0,0.3,0,3.8,0,4.1c-0.2,0-0.6,0-0.6,0
			c-0.2,0-0.4-0.1-0.6-0.2c-0.3-0.1-0.6-0.3-1-0.3c-0.4,0-0.8,0.3-0.9,0.4C38.5,55.3,38.5,51.5,38.5,51.5z M35,51.7
			c0.2,0,0.6,0,0.6,0c0.2,0,0.4-0.1,0.6-0.3c0.2-0.2,0.5-0.4,1-0.4c0.9,0,1,0.5,1,0.5c0,0,0,3.7,0,4.1c-0.2-0.2-0.5-0.4-0.9-0.4
			c-0.4,0-0.7,0.1-1,0.3c-0.2,0.1-0.4,0.2-0.6,0.2c0,0-0.4,0-0.6,0C35,55.5,35,51.9,35,51.7z M34.4,52c0.1,0,0.2-0.1,0.3-0.2v4.1
			c0,0.1,0.1,0.1,0.1,0.1h0.7c0.3,0,0.5-0.1,0.8-0.2c0.3-0.1,0.6-0.3,0.9-0.3c0.5,0,0.8,0.4,0.8,0.4c0,0,0.1,0.1,0.1,0.1l0.1,0
			c0,0,0,0,0,0c0,0,0,0,0,0l0.1,0c0,0,0.1,0,0.1-0.1c0,0,0.4-0.4,0.8-0.4c0.3,0,0.6,0.1,0.9,0.3c0.3,0.1,0.5,0.2,0.8,0.2h0.7
			C42,56,42,56,42,55.9v-4.1c0.1,0.1,0.3,0.2,0.3,0.2c0,0.1,0,3.9,0,4.1c-0.3,0-3.3,0-3.3,0c0,0-0.1,0-0.1,0c0,0-0.2,0.2-0.5,0.3
			l-0.1,0c-0.3,0-0.5-0.3-0.6-0.3c0,0-0.1,0-0.1,0c0,0-3,0-3.3,0C34.4,55.9,34.4,52.2,34.4,52z M43,56.8c-0.3,0-3.8,0-3.8,0
			c0,0-0.1,0-0.1,0.1c0,0-0.2,0.2-0.5,0.2c-0.1,0-0.3,0-0.4,0c-0.3-0.1-0.5-0.2-0.5-0.2c0,0-0.1-0.1-0.1-0.1c0,0-3.5,0-3.8,0
			c0-0.3,0-4.4,0-4.7c0.1,0,0.2,0,0.3,0v4.2c0,0.1,0.1,0.1,0.1,0.1c0,0,3.2,0,3.3,0c0.1,0.1,0.3,0.3,0.7,0.3c0,0,0.2,0,0.2,0
			c0.3,0,0.6-0.2,0.7-0.3c0.1,0,3.3,0,3.3,0c0.1,0,0.1-0.1,0.1-0.1v-4.2c0.1,0,0.2,0,0.3,0C43,52.3,43,56.5,43,56.8z"/>
		<path class="st0" d="M35.7,52.4c0.1,0,0.3,0,0.7-0.2l0.2-0.1L37,52c0.3-0.1,0.5,0,0.6,0c0,0-0.1,0,0-0.1c0,0,0-0.1,0.1,0
			c0,0-0.3-0.1-0.7,0L36.5,52l-0.2,0.1c-0.3,0.1-0.5,0.2-0.6,0.2C35.6,52.3,35.6,52.3,35.7,52.4C35.6,52.4,35.6,52.4,35.7,52.4z"/>
		<path class="st0" d="M35.7,53.3c0.1,0,0.3,0,0.7-0.2l0.2-0.1l0.4-0.2c0.3-0.1,0.5,0,0.6,0c0,0,0.1,0,0.1-0.1c0,0,0-0.1,0-0.1
			c0,0-0.3-0.1-0.7,0l-0.5,0.2L36.3,53c-0.3,0.1-0.5,0.2-0.6,0.2C35.6,53.1,35.6,53.2,35.7,53.3C35.6,53.3,35.6,53.3,35.7,53.3z"/>
		<path class="st0" d="M35.7,54.1c0.1,0,0.3,0,0.7-0.2l0.2-0.1l0.4-0.2c0.3-0.1,0.5,0,0.6,0c0,0,0.1,0,0.1-0.1c0,0,0-0.1-0.1-0.1
			c0,0-0.3-0.1-0.7,0l-0.5,0.2l-0.2,0.1C36,54,35.7,54,35.7,54C35.6,54,35.6,54,35.7,54.1C35.6,54.1,35.6,54.1,35.7,54.1z"/>
		<path class="st0" d="M36.3,54.8l0.2-0.1l0.4-0.2c0.3-0.1,0.5,0,0.6,0c0,0-0.1,0-0.1-0.1c0,0,0-0.1,0.1-0.1c0,0-0.3-0.1-0.7,0
			l-0.5,0.2l-0.2,0.1c-0.3,0.1-0.5,0.2-0.6,0.2c0,0-0.1,0-0.1,0.1c0,0,0,0.1,0.1,0.1C35.7,55,36,55,36.3,54.8z"/>
		<path class="st0" d="M39.1,51.9c0.1,0,0.4,0,0.6,0c0,0,0.4,0.2,0.4,0.2l0.2,0.1c0.3,0.1,0.6,0.2,0.7,0.2c0,0,0.1,0,0.1-0.1
			c0,0,0-0.1-0.1-0.1c-0.1,0-0.3,0-0.6-0.2L40.3,52l-0.5-0.2c-0.3-0.1-0.7,0-0.7,0C39.1,51.8,39.1,51.9,39.1,51.9
			C39.1,51.9,39.1,51.9,39.1,51.9z"/>
		<path class="st0" d="M39.1,52.8c0.1,0,0.4,0,0.6,0l0.4,0.2l0.2,0.1c0.3,0.1,0.6,0.2,0.7,0.2c0,0,0.1,0,0.1-0.1c0,0,0-0.1-0.1-0.1
			c-0.1,0-0.3,0-0.6-0.2l-0.2-0.1l-0.5-0.2c-0.3-0.1-0.7,0-0.7,0C39.1,52.7,39.1,52.7,39.1,52.8C39.1,52.8,39.1,52.8,39.1,52.8z"/>
		<path class="st0" d="M39.1,53.7c0.1,0,0.4,0,0.6,0l0.4,0.2l0.2,0.1c0.3,0.1,0.6,0.2,0.7,0.2c0,0,0.1,0,0.1-0.1c0,0,0-0.1-0.1-0.1
			c-0.1,0-0.3,0-0.6-0.2l-0.2-0.1l-0.5-0.2c-0.3-0.1-0.6,0-0.7,0C39.1,53.5,39.1,53.6,39.1,53.7C39.1,53.6,39.1,53.7,39.1,53.7z"/>
		<path class="st0" d="M40.2,54.7l0.2,0.1C40.8,55,41,55,41.1,55c0,0,0.1,0,0.1-0.1c0,0,0-0.1-0.1-0.1c-0.1,0-0.3,0-0.6-0.2
			l-0.2-0.1l-0.5-0.2c-0.3-0.1-0.6,0-0.7,0c0,0-0.1,0-0.1,0.1c0,0,0,0.1,0.1,0.1c0.1,0,0.4,0,0.6,0L40.2,54.7z"/>
	</g>
	<g id="Left_Book">
		<path class="st0" d="M24,52.4c0.1,0,0.3,0,0.7-0.2l0.2-0.1l0.4-0.2c0.3-0.1,0.5,0,0.6,0c0,0-0.1,0,0-0.1c0,0,0-0.1,0.1,0
			c0,0-0.3-0.1-0.7,0L24.8,52l-0.2,0.1c-0.3,0.1-0.5,0.2-0.6,0.2C24,52.3,23.9,52.3,24,52.4C23.9,52.4,24,52.4,24,52.4z"/>
		<path class="st0" d="M24,53.3c0.1,0,0.3,0,0.7-0.2l0.2-0.1l0.4-0.2c0.3-0.1,0.5,0,0.6,0c0,0,0.1,0,0.1-0.1c0,0,0-0.1,0-0.1
			c0,0-0.3-0.1-0.7,0l-0.5,0.2L24.6,53c-0.3,0.1-0.5,0.2-0.6,0.2C24,53.1,23.9,53.2,24,53.3C23.9,53.3,24,53.3,24,53.3z"/>
		<path class="st0" d="M24,54.1c0.1,0,0.3,0,0.7-0.2l0.2-0.1l0.4-0.2c0.3-0.1,0.5,0,0.6,0c0,0,0.1,0,0.1-0.1c0,0,0-0.1-0.1-0.1
			c0,0-0.3-0.1-0.7,0l-0.5,0.2l-0.2,0.1C24.3,54,24.1,54,24,54C24,54,23.9,54,24,54.1C23.9,54.1,24,54.1,24,54.1z"/>
		<path class="st0" d="M24,55c0.1,0,0.3,0,0.7-0.2l0.2-0.1l0.4-0.2c0.3-0.1,0.5,0,0.6,0c0,0-0.1,0-0.1-0.1c0,0,0-0.1,0.1-0.1
			c0,0-0.3-0.1-0.7,0c0,0-0.5,0.2-0.5,0.2l-0.2,0.1c-0.3,0.1-0.5,0.2-0.6,0.2C24,54.9,23.9,54.9,24,55C23.9,55,24,55,24,55z"/>
		<path class="st0" d="M27.5,51.9C27.5,51.9,27.5,51.9,27.5,51.9c0,0.1,0.3,0,0.6,0.1c0,0,0.4,0.2,0.4,0.2l0.2,0.1
			c0.3,0.1,0.6,0.2,0.7,0.2c0,0,0.1,0,0.1-0.1c0,0,0-0.1-0.1-0.1c-0.1,0-0.3,0-0.6-0.2L28.6,52l-0.5-0.2
			C27.8,51.7,27.4,51.8,27.5,51.9C27.5,51.8,27.5,51.8,27.5,51.9z"/>
		<path class="st0" d="M27.5,52.8c0.1,0,0.4,0,0.6,0l0.4,0.2l0.2,0.1c0.3,0.1,0.6,0.2,0.7,0.2c0,0,0.1,0,0.1-0.1c0,0,0-0.1-0.1-0.1
			c-0.1,0-0.3,0-0.6-0.2l-0.2-0.1l-0.5-0.2c-0.3-0.1-0.7,0-0.7,0C27.4,52.7,27.4,52.7,27.5,52.8C27.4,52.8,27.4,52.8,27.5,52.8z"/>
		<path class="st0" d="M28.1,53.7l0.4,0.2l0.2,0.1c0.3,0.1,0.6,0.2,0.7,0.2c0,0,0.1,0,0.1-0.1c0,0,0-0.1-0.1-0.1
			c-0.1,0-0.3,0-0.6-0.2l-0.2-0.1l-0.5-0.2c-0.3-0.1-0.7,0-0.7,0c0,0-0.1,0-0.1,0.1c0,0,0,0.1,0.1,0.1
			C27.6,53.6,27.8,53.6,28.1,53.7z"/>
		<path class="st0" d="M28.5,54.7l0.2,0.1c0.3,0.1,0.6,0.2,0.7,0.2c0,0,0.1,0,0.1-0.1c0,0,0-0.1-0.1-0.1c-0.1,0-0.3,0-0.6-0.2
			l-0.2-0.1l-0.5-0.2c-0.3-0.1-0.7,0-0.7,0c0,0,0.1,0,0.1,0.1c0,0,0,0.1-0.1,0.1c0.1,0,0.4,0,0.6,0L28.5,54.7z"/>
		<path class="st0" d="M31.4,51.8h-0.6l-0.5-0.4c0,0-0.1,0-0.1,0h-0.7c-0.1,0-0.3-0.1-0.4-0.2c-0.2-0.2-0.6-0.4-1.2-0.4
			c-0.7,0-1,0.3-1.2,0.5c-0.2-0.2-0.5-0.5-1.2-0.5c-0.6,0-0.9,0.2-1.2,0.4c-0.2,0.1-0.3,0.2-0.4,0.2h-0.7c0,0-0.1,0-0.1,0l-0.5,0.4
			H22c-0.1,0-0.1,0.1-0.1,0.1v5c0,0.1,0.1,0.1,0.1,0.1c0,0,3.7,0,3.8,0c0.1,0.1,0.3,0.2,0.6,0.3c0.1,0,0.4,0,0.5,0
			c0.3-0.1,0.5-0.2,0.6-0.3c0.1,0,3.8,0,3.8,0c0.1,0,0.1-0.1,0.1-0.1v-5C31.6,51.9,31.5,51.8,31.4,51.8z M26.9,51.6
			c0,0,0.2-0.5,1-0.5c0.5,0,0.8,0.2,1,0.4c0.2,0.1,0.4,0.3,0.6,0.3c0,0,0.4,0,0.6,0c0,0.3,0,3.8,0,4.1c-0.2,0-0.6,0-0.6,0
			c-0.2,0-0.4-0.1-0.6-0.2c-0.3-0.1-0.6-0.3-1-0.3c-0.4,0-0.8,0.3-0.9,0.4C26.9,55.3,26.9,51.6,26.9,51.6z M23.3,51.7
			c0.2,0,0.6,0,0.6,0c0.2,0,0.4-0.1,0.6-0.3c0.2-0.2,0.5-0.4,1-0.4c0.9,0,1,0.5,1,0.5c0,0,0,3.7,0,4.1c-0.2-0.2-0.5-0.4-0.9-0.4
			c-0.4,0-0.7,0.1-1,0.3c-0.2,0.1-0.4,0.2-0.6,0.2c0,0-0.4,0-0.6,0C23.3,55.5,23.3,52,23.3,51.7z M22.7,52c0.1,0,0.2-0.1,0.3-0.2
			v4.1c0,0.1,0.1,0.1,0.1,0.1h0.7c0.3,0,0.5-0.1,0.8-0.2c0.3-0.1,0.6-0.3,0.9-0.3c0.5,0,0.8,0.4,0.8,0.4c0,0,0.1,0.1,0.1,0.1l0.1,0
			c0,0,0,0,0,0c0,0,0,0,0,0l0.1,0c0,0,0.1,0,0.1-0.1c0,0,0.4-0.4,0.8-0.4c0.3,0,0.6,0.1,0.9,0.3c0.3,0.1,0.5,0.2,0.8,0.2h0.7
			c0.1,0,0.1-0.1,0.1-0.1v-4.1c0.1,0.1,0.3,0.2,0.3,0.2c0,0.1,0,3.9,0,4.1c-0.3,0-3.3,0-3.3,0c0,0-0.1,0-0.1,0c0,0-0.2,0.2-0.5,0.3
			l-0.1,0c-0.3,0-0.5-0.3-0.6-0.3c0,0-0.1,0-0.1,0c0,0-3,0-3.3,0C22.7,55.9,22.7,52.2,22.7,52z M31.3,56.8c-0.3,0-3.8,0-3.8,0
			c0,0-0.1,0-0.1,0.1c0,0-0.2,0.2-0.5,0.2c-0.1,0-0.3,0-0.4,0C26.2,57,26,56.8,26,56.8c0,0-0.1-0.1-0.1-0.1c0,0-3.5,0-3.8,0
			c0-0.3,0-4.4,0-4.7c0.1,0,0.2,0,0.3,0v4.2c0,0.1,0.1,0.1,0.1,0.1c0,0,3.2,0,3.3,0c0.1,0.1,0.3,0.3,0.7,0.3c0,0,0.2,0,0.2,0
			c0.3,0,0.6-0.2,0.7-0.3c0.1,0,3.3,0,3.3,0c0.1,0,0.1-0.1,0.1-0.1v-4.2c0.1,0,0.2,0,0.3,0C31.3,52.4,31.3,56.5,31.3,56.8z"/>
	</g>
	<g id="Crown_1_">
		<path class="st0" d="M32.5,47.1c-1.8,0-3.8,0.4-3.8,1.3c0,0.4,0.4,0.7,1,0.9c0.1,0,0.3,0.1,0.3,0c0,0-0.2-0.1-0.2-0.1
			c-0.6-0.3-0.8-0.6-0.8-0.8c0-0.5,1.5-1,3.5-1c2,0,3.5,0.5,3.5,1c0,0.2-0.2,0.5-0.7,0.8c0,0-0.2,0.1-0.2,0.1c0,0,0.2,0,0.2,0
			c0.6-0.2,1-0.5,1-0.9C36.3,47.6,34.4,47.1,32.5,47.1z"/>
		<path class="st0" d="M36.9,45.7c-0.2,0.2-0.5,0.8-0.6,1c0,0,0,0,0,0s0,0,0,0c-0.2-0.1-0.3-0.2-0.6-0.3c-0.8-0.3-1.9-0.5-3.1-0.5h0
			c-1.2,0-2.3,0.2-3.1,0.5c-0.3,0.1-0.4,0.2-0.6,0.3c0,0,0,0,0,0s0,0,0,0c0-0.2-0.4-0.8-0.6-1c0-0.1-0.1,0-0.1,0.1
			c0.3,0.5,0.4,1,0.4,1.2c0,0.1,0,0.1,0.1,0.2c0,0,0.1,0,0.1,0c0.2-0.1,0.4-0.2,0.7-0.4c0.8-0.3,1.9-0.5,3-0.5h0
			c1.2,0,2.3,0.2,3,0.5c0.4,0.1,0.6,0.3,0.7,0.4c0,0,0.1,0,0.1,0c0.1,0,0.1-0.1,0.1-0.2C36.6,46.8,36.7,46.3,36.9,45.7
			C37,45.7,36.9,45.7,36.9,45.7z"/>
		<path class="st0" d="M32.8,46.7c0-0.1-0.1-0.3-0.3-0.3c-0.1,0-0.3,0.1-0.3,0.3c0,0.1,0.1,0.3,0.3,0.3C32.7,47,32.8,46.9,32.8,46.7
			z"/>
		<path class="st0" d="M31,46.9c0-0.1-0.1-0.3-0.3-0.3c-0.1,0-0.3,0.1-0.3,0.3s0.1,0.3,0.3,0.3C30.9,47.1,31,47,31,46.9z"/>
		<path class="st0" d="M29.1,47.7c0.1-0.1,0.2-0.2,0.1-0.4c-0.1-0.1-0.2-0.2-0.4-0.1c-0.1,0.1-0.2,0.2-0.1,0.4
			C28.9,47.7,29,47.7,29.1,47.7z"/>
		<path class="st0" d="M30,47.1c0-0.1-0.1-0.1-0.1-0.1c-0.1,0-0.1,0.1-0.1,0.1c0,0.1,0.1,0.1,0.1,0.1C29.9,47.2,30,47.1,30,47.1z"/>
		<path class="st0" d="M31.8,46.8c0-0.1-0.1-0.1-0.1-0.1c-0.1,0-0.1,0.1-0.1,0.1c0,0.1,0.1,0.1,0.1,0.1
			C31.7,46.9,31.8,46.8,31.8,46.8z"/>
		<path class="st0" d="M34.6,46.9c0-0.1-0.1-0.3-0.3-0.3c-0.1,0-0.3,0.1-0.3,0.3s0.1,0.3,0.3,0.3C34.5,47.1,34.6,47,34.6,46.9z"/>
		<path class="st0" d="M36.2,47.2c-0.1-0.1-0.3,0-0.4,0.1c-0.1,0.1,0,0.3,0.1,0.4c0.1,0.1,0.3,0,0.4-0.1
			C36.4,47.4,36.4,47.3,36.2,47.2z"/>
		<path class="st0" d="M35.4,47.1c0-0.1-0.1-0.1-0.1-0.1c-0.1,0-0.1,0.1-0.1,0.1c0,0.1,0.1,0.1,0.1,0.1
			C35.3,47.2,35.4,47.1,35.4,47.1z"/>
		<path class="st0" d="M33.6,46.8c0-0.1-0.1-0.1-0.1-0.1c-0.1,0-0.1,0.1-0.1,0.1c0,0.1,0.1,0.1,0.1,0.1
			C33.6,46.9,33.6,46.8,33.6,46.8z"/>
		<path class="st0" d="M32.6,43.6c-0.1,0-0.3,0.1-0.3,0.3c0,0.1,0.1,0.3,0.3,0.3c0.1,0,0.3-0.1,0.3-0.3
			C32.8,43.7,32.7,43.6,32.6,43.6z"/>
		<path class="st0" d="M32.6,42.8c-0.1,0-0.3,0.1-0.3,0.3c0,0.1,0.1,0.3,0.3,0.3c0.1,0,0.3-0.1,0.3-0.3C32.8,43,32.7,42.8,32.6,42.8
			z"/>
		<path class="st0" d="M32.6,42.1c-0.1,0-0.3,0.1-0.3,0.3c0,0.1,0.1,0.3,0.3,0.3c0.1,0,0.3-0.1,0.3-0.3
			C32.8,42.2,32.7,42.1,32.6,42.1z"/>
		<path class="st0" d="M31.3,42.7c0.1,0,0.3-0.1,0.3-0.3c0-0.1-0.1-0.3-0.3-0.3c-0.1,0-0.3,0.1-0.3,0.3C31,42.6,31.1,42.7,31.3,42.7
			z"/>
		<path class="st0" d="M30.4,42.4c0.1,0,0.3-0.1,0.3-0.3c0-0.1-0.1-0.3-0.3-0.3c-0.1,0-0.3,0.1-0.3,0.3
			C30.2,42.3,30.3,42.4,30.4,42.4z"/>
		<path class="st0" d="M29.5,42.2c0.1,0,0.3-0.1,0.3-0.3c0-0.1-0.1-0.3-0.3-0.3c-0.1,0-0.3,0.1-0.3,0.3
			C29.3,42.1,29.4,42.2,29.5,42.2z"/>
		<path class="st0" d="M28.6,42.3c0.1,0,0.3-0.1,0.3-0.3c0-0.1-0.1-0.3-0.3-0.3c-0.1,0-0.3,0.1-0.3,0.3
			C28.4,42.2,28.5,42.3,28.6,42.3z"/>
		<path class="st0" d="M27.9,42.8c0.1,0,0.3-0.1,0.3-0.3c0-0.1-0.1-0.3-0.3-0.3c-0.1,0-0.3,0.1-0.3,0.3
			C27.6,42.7,27.7,42.8,27.9,42.8z"/>
		<path class="st0" d="M27.4,43.6c0.1,0,0.3-0.1,0.3-0.3c0-0.1-0.1-0.3-0.3-0.3c-0.1,0-0.3,0.1-0.3,0.3
			C27.2,43.5,27.3,43.6,27.4,43.6z"/>
		<path class="st0" d="M27.7,44.3c0-0.1-0.1-0.3-0.3-0.3c-0.1,0-0.3,0.1-0.3,0.3c0,0.1,0.1,0.3,0.3,0.3
			C27.6,44.5,27.7,44.4,27.7,44.3z"/>
		<path class="st0" d="M27.7,44.9c-0.1,0-0.3,0.1-0.3,0.3c0,0.1,0.1,0.3,0.3,0.3c0.1,0,0.3-0.1,0.3-0.3C28,45,27.9,44.9,27.7,44.9z"
			/>
		<path class="st0" d="M35.6,48.6c0-0.6-2-0.8-3-0.8c-1,0-3,0.2-3,0.8c0,0.6,2,0.8,3,0.8C33.6,49.4,35.6,49.3,35.6,48.6z M32.5,49.1
			c-1.8,0-2.7-0.4-2.7-0.5c0-0.2,0.9-0.5,2.7-0.5c1.8,0,2.7,0.4,2.7,0.5C35.3,48.8,34.4,49.1,32.5,49.1z"/>
		<path class="st0" d="M32.1,41.5h0.3v0.3c0,0.1,0.1,0.1,0.1,0.1c0.1,0,0.1-0.1,0.1-0.1v-0.3H33c0.1,0,0.1-0.1,0.1-0.1
			c0-0.1-0.1-0.1-0.1-0.1h-0.3V41c0-0.1-0.1-0.1-0.1-0.1c-0.1,0-0.1,0.1-0.1,0.1v0.3h-0.3c-0.1,0-0.1,0.1-0.1,0.1
			C32,41.5,32.1,41.5,32.1,41.5z"/>
		<path class="st0" d="M28.7,45.8L28.7,45.8L28.7,45.8L28.7,45.8c0.1,0.3,0.5,0.5,0.9,0.4c0.2-0.1,0.4-0.1,0.6-0.4
			c0.1-0.1,0.1-0.3,0-0.5c0,0-0.1-0.1-0.2-0.1c0,0-0.1,0.1,0,0.2c0.1,0.1,0,0.2-0.1,0.3c-0.1,0-0.2,0-0.2,0c0,0,0.2-0.1,0-0.2
			c-0.1-0.1-0.4-0.4,0-0.5c0.3-0.1,0.5,0.3,0.6,0.3c0,0.1,0.1,0,0.1,0c-0.1-0.3-0.3-0.4-0.4-0.7c0-0.2,0.1-0.4,0.2-0.5
			c0,0,0.1,0,0.1,0c0.1,0,0.3,0.2,0.4,0.4c0.1,0.3-0.1,0.5-0.1,0.8c0,0.1,0.1,0.1,0.1,0c0-0.1,0.1-0.5,0.4-0.5
			c0.4,0,0.3,0.4,0.2,0.5c-0.1,0.2,0.1,0.2,0.1,0.2c0,0-0.1,0.1-0.2,0.1c-0.1,0-0.2-0.1-0.2-0.2c0-0.1,0-0.1-0.1-0.1
			c-0.1,0-0.1,0.1-0.1,0.1c-0.1,0.2,0,0.4,0.2,0.5c0.2,0.2,0.5,0.2,0.7,0.1c0.6-0.1,0.6-0.4,0.6-0.4c-0.1,0.1-0.4,0.1-0.4,0.1
			c0,0,0,0,0,0c-0.1,0-0.1,0-0.1-0.1v-0.6c0-0.1,0-0.1,0.1-0.1c0,0,0,0,0,0l0.4,0.2l-0.1-0.3c0,0,0,0,0,0c0-0.1,0-0.1,0.1-0.1l0.3,0
			l0.3,0c0.1,0,0.1,0,0.1,0.1c0,0,0,0,0,0L32.9,45l0.4-0.2c0,0,0,0,0,0c0.1,0,0.1,0,0.1,0.1v0.6c0,0.1,0,0.1-0.1,0.1c0,0,0,0,0,0
			c0,0-0.3-0.1-0.4-0.1c0,0,0,0.4,0.6,0.4c0.2,0,0.5,0,0.7-0.1c0.1-0.1,0.2-0.2,0.2-0.5c0-0.1-0.1-0.2-0.1-0.1c0,0-0.1,0.1-0.1,0.1
			c0,0.1-0.1,0.2-0.2,0.2c-0.1,0-0.2-0.1-0.2-0.1c0,0,0.2,0,0.1-0.2c-0.1-0.1-0.2-0.5,0.2-0.5c0.3,0,0.4,0.4,0.4,0.5
			c0,0.1,0,0.1,0.1,0c0.1-0.3-0.1-0.5-0.1-0.8c0-0.2,0.3-0.3,0.4-0.4c0,0,0.1,0,0.1,0c0.1,0.1,0.3,0.3,0.2,0.5
			c-0.1,0.3-0.3,0.4-0.4,0.7c0,0.1,0,0.1,0.1,0c0-0.1,0.3-0.5,0.6-0.3c0.4,0.2,0.1,0.5,0,0.5c-0.1,0.1,0,0.2,0,0.2
			c0,0-0.1,0.1-0.2,0c-0.1-0.1-0.2-0.2-0.1-0.3c0-0.1,0-0.1,0-0.2c0,0-0.2,0-0.2,0.1c-0.1,0.2-0.1,0.3,0,0.5
			c0.1,0.2,0.3,0.3,0.6,0.4c0.4,0.1,0.7-0.1,0.9-0.3l0,0l0,0l0,0c0.3-0.4,0.9-1.3,0.9-2.1c0-0.8-0.7-1.4-1.6-1.4
			c-0.4,0-0.8,0.1-1.2,0.3c-0.4,0.1-0.8,0.3-1.2,0.2v-0.8c0-0.1-0.1-0.1-0.1-0.1c-0.1,0-0.1,0.1-0.1,0.1v2.1h-1v-2.1
			c0-0.1-0.1-0.1-0.1-0.1c-0.1,0-0.1,0.1-0.1,0.1v0.8c-0.4,0-0.8-0.1-1.2-0.2c-0.4-0.1-0.8-0.3-1.2-0.3c-0.9,0-1.6,0.6-1.6,1.4
			C27.8,44.6,28.4,45.5,28.7,45.8z M34.7,42.9c0.4-0.1,0.7-0.3,1.1-0.3c0.8,0,1.3,0.5,1.3,1.1c0,0.2-0.1,0.4-0.1,0.6
			c0-0.1-0.1-0.3-0.2-0.4c-0.2-0.3-0.6-0.5-1.2-0.5c-0.2-0.3-0.7-0.4-1.2-0.4c0,0-0.1,0-0.1,0C34.4,43,34.5,43,34.7,42.9z
			 M33.4,43.2c0.1,0,0.2,0,0.3,0c-0.1,0-0.2,0.1-0.3,0.1V43.2z M33.4,43.7c0.3-0.3,0.7-0.4,0.9-0.4c0.5,0,0.9,0.2,1,0.4
			c0,0,0.1,0.1,0.1,0.1c0.5,0,0.8,0.1,1,0.4c0.2,0.3,0.2,0.7,0.1,0.8c0,0,0,0,0,0c0,0.1-0.1,0.2-0.1,0.2c0-0.5-0.3-0.9-0.6-1
			c0,0-0.1,0-0.1,0c-0.1,0.1,0.6,0.6,0.4,1.2c-0.1,0.4-0.3,0.5-0.5,0.5c0,0,0,0-0.1,0c0.1-0.1,0.1-0.2,0.1-0.2c0,0,0-0.1,0-0.1
			c0,0,0,0,0,0c0.1-0.1,0.2-0.3,0.2-0.4c0,0,0,0,0-0.1c0-0.1-0.1-0.3-0.4-0.4c0,0-0.1,0-0.1,0c0,0,0,0,0-0.1c0,0,0-0.1,0-0.1
			c0-0.3-0.2-0.6-0.4-0.7c0,0-0.1-0.1-0.2,0c-0.2,0.1-0.6,0.2-0.7,0.6c0,0,0,0,0,0.1c0,0-0.1,0-0.1,0c-0.2,0-0.3,0.1-0.4,0.2
			c0-0.1-0.1-0.1-0.2-0.1c0.1-0.1,0.2-0.2,0.4-0.4c0.2-0.2,0.4-0.2,0.4-0.3c0,0-0.1-0.1-0.2-0.1c-0.1,0-0.2,0.1-0.3,0.1
			c-0.2,0.1-0.3,0.2-0.4,0.3L33.4,43.7C33.4,43.7,33.4,43.7,33.4,43.7z M31.4,44.5c-0.1-0.1-0.2-0.2-0.4-0.2c0,0-0.1,0-0.1,0
			c0,0,0,0,0-0.1c-0.1-0.4-0.5-0.6-0.7-0.6c-0.1,0-0.2,0-0.2,0c-0.2,0.1-0.4,0.4-0.4,0.7c0,0,0,0.1,0,0.1c0,0,0,0,0,0.1
			c0,0-0.1,0-0.1,0c-0.3,0.1-0.3,0.3-0.4,0.4c0,0,0,0,0,0.1c0,0.2,0.1,0.3,0.2,0.4c0,0,0,0,0,0c0,0,0,0.1,0,0.1c0,0.1,0,0.2,0.1,0.2
			c0,0,0,0-0.1,0c-0.2-0.1-0.4-0.2-0.5-0.5c-0.2-0.6,0.5-1.1,0.4-1.2c0,0-0.1,0-0.1,0c-0.3,0.2-0.7,0.5-0.6,1c0-0.1-0.1-0.1-0.1-0.2
			c0,0,0,0,0,0c-0.1-0.2-0.1-0.6,0.1-0.8c0.2-0.2,0.5-0.4,1-0.4c0,0,0.1,0,0.1-0.1c0.1-0.2,0.5-0.4,1-0.4c0.2,0,0.7,0,0.9,0.4
			c0,0,0,0,0,0v0.4c-0.1-0.1-0.3-0.2-0.4-0.3c0,0-0.2-0.1-0.3-0.1c-0.1,0-0.2,0-0.2,0.1c0,0,0.2,0.1,0.4,0.3
			c0.1,0.1,0.3,0.3,0.4,0.4C31.5,44.4,31.4,44.4,31.4,44.5z M31.8,43.2v0.2c-0.1-0.1-0.2-0.1-0.3-0.1C31.6,43.2,31.7,43.2,31.8,43.2
			z M29.4,42.7c0.4,0,0.7,0.1,1.1,0.3c0.1,0.1,0.3,0.1,0.4,0.2c0,0-0.1,0-0.1,0c-0.5,0-1,0.2-1.2,0.4c-0.5,0-0.9,0.1-1.2,0.5
			c-0.1,0.1-0.2,0.3-0.2,0.4c-0.1-0.2-0.1-0.4-0.1-0.6C28.1,43.2,28.7,42.7,29.4,42.7z"/>
		<path class="st0" d="M33.8,42.7c0.1,0,0.3-0.1,0.3-0.3c0-0.1-0.1-0.3-0.3-0.3c-0.1,0-0.3,0.1-0.3,0.3
			C33.6,42.6,33.7,42.7,33.8,42.7z"/>
		<path class="st0" d="M34.7,42.4c0.1,0,0.3-0.1,0.3-0.3c0-0.1-0.1-0.3-0.3-0.3c-0.1,0-0.3,0.1-0.3,0.3
			C34.4,42.3,34.6,42.4,34.7,42.4z"/>
		<path class="st0" d="M35.6,42.2c0.1,0,0.3-0.1,0.3-0.3c0-0.1-0.1-0.3-0.3-0.3c-0.1,0-0.3,0.1-0.3,0.3
			C35.3,42.1,35.4,42.2,35.6,42.2z"/>
		<path class="st0" d="M36.5,42.3c0.1,0,0.3-0.1,0.3-0.3c0-0.1-0.1-0.3-0.3-0.3c-0.1,0-0.3,0.1-0.3,0.3
			C36.2,42.2,36.3,42.3,36.5,42.3z"/>
		<path class="st0" d="M37.3,42.8c0.1,0,0.3-0.1,0.3-0.3c0-0.1-0.1-0.3-0.3-0.3c-0.1,0-0.3,0.1-0.3,0.3C37,42.7,37.1,42.8,37.3,42.8
			z"/>
		<path class="st0" d="M37.7,43.6c0.1,0,0.3-0.1,0.3-0.3c0-0.1-0.1-0.3-0.3-0.3c-0.1,0-0.3,0.1-0.3,0.3
			C37.5,43.5,37.6,43.6,37.7,43.6z"/>
		<path class="st0" d="M37.7,44c-0.1,0-0.3,0.1-0.3,0.3c0,0.1,0.1,0.3,0.3,0.3c0.1,0,0.3-0.1,0.3-0.3C38,44.1,37.9,44,37.7,44z"/>
		<path class="st0" d="M37.4,44.9c-0.1,0-0.3,0.1-0.3,0.3c0,0.1,0.1,0.3,0.3,0.3c0.1,0,0.3-0.1,0.3-0.3C37.6,45,37.5,44.9,37.4,44.9
			z"/>
		<polygon class="st0" points="32.6,44.5 32.6,44.5 32.6,44.5 		"/>
	</g>
	<path id="Tree_1_" class="st0" d="M41,29.5c0,0,0-0.1,0-0.1c0-0.1,0-0.2-0.2-0.3c-0.3-0.3-0.8,0-1,0.1c0-0.1-0.1-0.2-0.1-0.2
		c0,0,0-0.1,0-0.1c0-0.2-0.2-0.3-0.3-0.3l0,0c0.2,0,0.6,0,0.7-0.3l0-0.2c0,0,0.2,0,0.2,0c0.3,0.1,0.8,0.2,1-0.2c0,0,0-0.1,0-0.1
		c0-0.1-0.1-0.2-0.1-0.3c0,0,0,0,0,0c0.1-0.1,0.5-0.3,0.5-0.6c0-0.1,0-0.2-0.1-0.3c-0.2-0.4-0.6-0.3-0.8-0.2c0,0,0,0-0.1,0
		c0,0,0,0,0,0c0,0,0-0.1,0-0.1c0-0.1,0-0.2-0.1-0.3c-0.1-0.1-0.1-0.1-0.2-0.1c0.1-0.1,0.2-0.2,0.2-0.4c0-0.1,0-0.2-0.1-0.2
		c0-0.1-0.1-0.2-0.3-0.3c-0.3-0.1-0.6,0-0.8,0.1c0,0,0-0.1,0-0.1c0-0.1,0-0.1,0-0.2c0-0.1,0-0.2-0.1-0.3c0.1-0.1,0.3-0.3,0.4-0.5
		c0,0,0-0.1,0-0.1c0-0.1,0-0.2-0.1-0.3c-0.3-0.3-0.7-0.2-0.9-0.1c0,0,0,0,0,0c-0.1-0.1-0.1-0.2-0.4-0.3c-0.3-0.1-0.5,0.2-0.7,0.3
		c0,0,0,0-0.1,0.1c0,0,0,0,0,0l-0.3-0.2c-0.3-0.1-0.5,0.4-0.6,0.5c0,0,0,0,0,0c0-0.1-0.1-0.1-0.1-0.2c0,0,0,0,0,0
		c0.1-0.1,0.3-0.3,0.4-0.6c0,0,0,0,0,0c0-0.1-0.1-0.3-0.2-0.4c-0.1-0.1-0.3-0.2-0.5-0.2c-0.3,0-0.5,0.3-0.7,0.4c0,0,0,0,0,0
		c0,0,0-0.1-0.1-0.1c0,0,0-0.1,0-0.2c0-0.1,0-0.1,0-0.2c0,0,0-0.1-0.1-0.1c0.2-0.1,0.4-0.3,0.4-0.6c0-0.1,0-0.1,0-0.2
		c-0.1-0.3-0.3-0.3-0.5-0.3c0,0,0,0,0,0c0-0.1,0-0.1,0-0.2c0-0.2-0.1-0.5-0.4-0.6c-0.4-0.1-0.6,0.2-0.8,0.4c0,0,0,0,0,0
		c-0.1-0.1-0.2-0.2-0.4-0.2c-0.1-0.2-0.2-0.3-0.4-0.3c-0.4,0-0.5,0.4-0.6,0.7c0,0,0,0.1-0.1,0.1c0,0-0.1,0-0.1,0
		c-0.1,0-0.3-0.1-0.4,0c-0.1,0.1-0.2,0.2-0.2,0.4c0,0.2,0.1,0.5,0.2,0.7c0,0,0,0,0,0.1c-0.2,0-0.3,0.1-0.4,0.2
		c0,0.1-0.1,0.1-0.1,0.2c0,0,0,0-0.1-0.1c0-0.2,0.2-1,0-1.2c-0.1-0.1-0.1-0.1-0.2-0.1c0,0-0.1,0-0.1,0c0-0.3-0.1-0.7-0.4-0.8
		c-0.2-0.1-0.4,0-0.4,0.1c-0.2-0.2-0.5-0.6-0.9-0.5c-0.2,0.1-0.2,0.2-0.2,0.4c0,0.2,0.1,0.4,0.1,0.6c0,0,0,0,0,0
		c-0.1,0-0.3,0.1-0.4,0.3c0,0,0,0.1,0,0.1c0,0,0,0,0,0c-0.2-0.2-0.5-0.3-0.8,0c-0.2,0.1-0.2,0.3-0.2,0.4c0,0.3,0.1,0.5,0.2,0.7
		c-0.1,0.1-0.3,0.2-0.3,0.4c0,0,0,0.1,0,0.1c0,0.5,0.5,0.6,0.8,0.7c0,0,0,0,0,0c0,0,0,0,0,0c0,0-0.2,0.1-0.2,0.1
		c0,0-0.1-0.1-0.1-0.1c-0.2-0.1-0.7-0.5-1.1,0c-0.1,0.1-0.1,0.2-0.1,0.3c0,0.2,0.2,0.4,0.3,0.5c0,0,0.1,0.1,0.1,0.1c0,0,0,0.1,0,0.1
		l-0.1,0.3c0,0,0,0.1,0,0.1c0,0,0,0-0.1,0c0-0.1,0-0.1,0-0.1c0-0.3,0-0.6-0.3-0.7c-0.2-0.1-0.3,0.1-0.4,0.1c0,0,0,0,0,0
		c0-0.3-0.1-0.8-0.5-0.8c-0.2,0-0.3,0.2-0.4,0.3c0,0,0,0,0,0c0,0,0,0,0,0c-0.1-0.1-0.3-0.4-0.6-0.3c-0.2,0.1-0.3,0.3-0.3,0.5
		c0,0.1,0,0.3,0,0.4c0,0,0,0,0,0.1c0,0,0,0,0,0c-0.1,0.1-0.3,0.1-0.3,0.3c0,0,0,0.1,0,0.1c0,0.3,0.4,0.5,0.6,0.7
		c-0.1,0-0.1,0.1-0.2,0.2c-0.2-0.1-0.4-0.1-0.5-0.1c-0.2,0.1-0.2,0.3-0.2,0.4c0,0,0,0,0,0.1c-0.2,0-0.5-0.1-0.7,0.3
		c-0.1,0.1-0.1,0.2-0.1,0.3c0,0.1,0,0.2,0.1,0.2c0.1,0.2,0.4,0.3,0.6,0.4c0,0.1-0.1,0.1-0.1,0.2l0.1,0.3c0.2,0.2,0.5,0.1,0.7,0
		c0.2-0.1,0.3-0.1,0.4,0c0,0-0.1,0.1-0.1,0.2c-0.1,0-0.1,0-0.2,0c-0.2,0-0.3,0.2-0.3,0.3c-0.2-0.1-0.5-0.4-0.8-0.3
		c-0.2,0.1-0.3,0.2-0.3,0.4c0,0.1,0,0.1,0,0.2c0,0,0,0,0,0c0,0,0,0,0,0c-0.2,0-0.4-0.1-0.6,0C23.1,29,23,29.1,23,29.3
		c0,0,0,0.1,0,0.1c0,0.4,0.4,0.5,0.6,0.6c-0.1,0.1-0.1,0.2-0.1,0.3c0,0.1,0,0.2,0.1,0.3c0.4,0.3,0.7,0.1,0.9,0l0,0
		c0,0.1,0,0.1,0,0.2c0,0,0,0.1,0,0.1c0,0-0.1,0-0.1,0c-0.1,0-0.3,0.1-0.4,0.3c0,0.1,0,0.1,0,0.2c0,0.1,0,0.1,0,0.2
		c0.1,0.4,0.5,0.4,0.7,0.4c0,0,0,0,0.1,0c0,0,0,0,0,0c0,0.1,0,0.3,0.2,0.4c0.4,0.3,0.8-0.1,1-0.2l0,0c0,0,0.1,0.1,0.1,0.1
		c0,0.1,0.1,0.2,0.1,0.2l0,0c0,0,0,0,0,0c-0.1,0.1-0.4,0.4-0.4,0.6c0,0.1,0,0.2,0.1,0.3c0.2,0.3,0.6,0.1,0.9-0.1
		c0,0,0.2-0.1,0.2-0.1c0,0,0,0,0,0c0,0,0,0,0,0c0,0.1,0.1,0.4,0.5,0.3c0.5-0.1,0.6-0.4,0.7-0.7c0-0.1,0.1-0.1,0.1-0.2
		c0,0,0.2,0.2,0.2,0.2l0.2,0c0.3-0.2,0.5-0.8,0.5-1c0.6,0.3,1.1,1.1,1.2,1.3c0.1,0.1,0.3,0.5,0.6,1c0.2,0.3,0.4,0.6,0.4,0.7
		c-0.1,0.8-0.5,1.4-1,1.7l-0.2,0.1c-0.5,0.3-1.3,0.6-1.6,0.9c0,0-0.1,0-0.1,0c-0.3,0-0.5,0.1-0.6,0.1c-0.2-0.1-0.4-0.2-0.6-0.2
		c-0.6,0-0.8,0.3-0.9,0.5c-0.2,0.4-0.1,0.8,0,1c0.2,0.3,0.5,0.5,0.9,0.5c0.3,0,0.5-0.1,0.5-0.1c0.1,0.1,0.3,0.1,0.6,0.1
		c0.3,0,0.5-0.1,0.6-0.1c0.2,0.1,0.3,0.2,0.5,0.2c0.3,0,0.4-0.1,0.5-0.1c0.1,0.1,0.3,0.1,0.5,0.1c0.3,0,0.5-0.1,0.6-0.1
		c0.2,0.1,0.3,0.1,0.5,0.1c0.3,0,0.4-0.1,0.5-0.1c0.1,0.1,0.3,0.1,0.5,0.1c0.3,0,0.5-0.1,0.6-0.1c0.2,0.1,0.3,0.1,0.5,0.1
		c0.3,0,0.4-0.1,0.5-0.1c0.1,0.1,0.3,0.1,0.5,0.1c0.3,0,0.5-0.1,0.6-0.1c0.2,0.1,0.3,0.1,0.5,0.1c0.3,0,0.4-0.1,0.5-0.1
		c0.1,0.1,0.3,0.1,0.5,0.1c0.3,0,0.5-0.1,0.6-0.2c0.2,0.1,0.4,0.2,0.6,0.2c0.4,0,0.8-0.2,1-0.5c0.2-0.4,0.1-0.8,0-1
		c-0.2-0.3-0.5-0.4-0.9-0.4c-0.3,0-0.5,0.1-0.5,0.1c-0.1,0-0.2-0.1-0.4-0.1c-0.2-0.3-0.4-0.4-1.3-0.8l-0.1-0.1
		c-0.9-0.4-1.2-0.8-1.3-1.1l0,0c-0.2-0.3-0.5-1.9,0.2-3c0.4-0.6,0.9-0.8,1.1-1c0,0.3,0.1,0.7,0.3,0.8l0.2,0.1c0,0,0.1,0,0.1-0.1
		c0,0,0,0.1,0,0.1c0.1,0.3,0.3,0.7,0.6,0.7c0.2,0,0.4-0.1,0.4-0.2c0.1,0.1,0.3,0.3,0.6,0.3c0.2,0,0.3-0.1,0.4-0.2
		c0.1,0,0.5,0.2,0.7-0.2c0.1-0.1,0.1-0.2,0.1-0.2c0-0.2-0.2-0.3-0.2-0.4c0,0,0,0,0,0c0,0,0.1-0.1,0.1-0.2c0.1,0,0.2,0,0.3-0.1
		c0.1-0.1,0.2-0.2,0.2-0.3c0,0,0,0,0,0c0.1,0,0.4,0.1,0.6-0.2c0-0.1,0-0.1,0-0.2c0.1-0.1,0.2-0.2,0.2-0.3l0,0
		c0.2,0.1,0.4,0.2,0.6,0.1C41,31,41,30.8,41,30.6l0,0c0.2,0,0.4,0.1,0.6-0.1c0.1-0.1,0.2-0.2,0.2-0.4c0,0,0-0.1,0-0.1
		C41.8,29.6,41.3,29.5,41,29.5z M39.7,29c0,0.1-0.1,0.1-0.1,0.1C39.6,29.1,39.7,29,39.7,29z M39.5,28.8
		C39.5,28.8,39.4,28.9,39.5,28.8L39.3,29l-0.1,0.1c-0.1,0.2-0.2,0.5-0.8,0.7c0,0,0,0,0-0.1c-0.1-0.1-0.2-0.3-0.2-0.6
		c0-0.3,0-0.6,0-0.7c0.5-0.1,0.9,0,1,0.2c0,0,0.2,0.1,0.2,0.1C39.4,28.7,39.5,28.8,39.5,28.8z M36.4,28.8l0.1,0.2l0,0.1
		c-0.2,0.1-0.5,0.1-0.7,0l-0.3,0c-0.1,0-0.1,0.2-0.1,0.2l0,0.1c-0.1,0-0.6-0.1-0.8-0.2c0.1-0.2,0.2-0.3,0.4-0.4c0,0,0,0,0,0
		c0.1-0.1,0.3-0.2,0.5-0.2c0.4-0.1,0.8-0.3,0.8-0.4c0-0.1-0.5,0-0.9,0.1c-0.3,0.1-0.7,0.3-0.9,0.3c0.1-0.3,0.3-0.7,0.4-0.8
		C35,28,35.1,28,35.1,28l0.3-0.2c0.4-0.3,0.5-0.4,0.5-0.4l0,0l0.1,0.1c0.1,0,0.2,0,0.3-0.1c0.1,0,0.2-0.1,0.3-0.1
		c0.1,0,0.1,0.1,0.1,0.1l0.1,0.2c0,0,0.3,0,0.3,0c0.1,0,0.4-0.1,0.4,0c0.1,0.2,0,0.3-0.2,0.4c-0.1,0.1-0.2,0.1-0.2,0.2l0.1,0.2
		l0,0.1c0,0.1-0.1,0.1-0.1,0.1c0,0,0,0-0.1,0c-0.1,0-0.2,0-0.3,0l-0.3,0C36.4,28.7,36.4,28.7,36.4,28.8
		C36.4,28.8,36.4,28.8,36.4,28.8z M34.5,30.7c-0.1,0.1-0.3,0.3-0.4,0.4c0,0,0-0.1,0-0.1c0-0.3,0-0.7,0.1-1c0.1-0.2,0.2-0.4,0.3-0.5
		c0.1,0.1,0.2,0.1,0.4,0.1c0,0.1,0,0.1-0.1,0.1l-0.3,0.2C34.3,30.1,34.4,30.5,34.5,30.7z M33.9,28.2c0-0.1,0.1-0.3,0.1-0.4
		c0.1-0.3,0.6-1.1,0.5-1.2s-0.6,0.8-0.7,1.1c0,0.1-0.1,0.2-0.1,0.3c-0.1-0.2-0.2-0.5-0.2-0.7c0-0.1,0-0.2,0.1-0.2c0,0,0.1,0,0.1,0
		l0.1,0c0.1,0,0.1-0.1,0.1-0.1c0-0.1,0-0.1-0.1-0.2c-0.1-0.1-0.2-0.4-0.2-0.6c0-0.1,0-0.1,0-0.2c0-0.1,0.1-0.1,0.2-0.2
		c0,0,0.1,0,0.1,0c0.1,0.1,0.2,0.1,0.2,0l0.1-0.2c0-0.1,0.1-0.6,0.3-0.6l0.1,0c0,0,0.1,0.1,0.2,0l0.1-0.1c0.3-0.3,0.4-0.2,0.4-0.2
		c0.1,0,0.1,0.2,0.1,0.3c0,0.1,0,0.2,0.1,0.3c0,0,0.2,0,0.2,0l0.1,0c0.1,0.3-0.1,0.5-0.3,0.6c-0.1,0-0.1,0.1-0.1,0.2
		c0,0,0.1,0.1,0.1,0.1l0.1,0.1c0,0.1-0.4,0.3-0.5,0.4L34.8,27c0,0-0.1,0-0.1,0.1c0,0,0,0,0.1,0.1l0.2,0.1l0.1,0
		C35.1,27.6,34.2,28,33.9,28.2z M34.4,28.2c-0.1,0.2-0.2,0.5-0.2,0.6c-0.1,0-0.1,0.1-0.2,0.1c0,0,0,0-0.1,0c0,0,0,0,0,0
		c0-0.2,0-0.3-0.1-0.4C34,28.4,34.1,28.3,34.4,28.2z M33.6,28.1C33.6,28.1,33.6,28.1,33.6,28.1C33.6,28.1,33.6,28.1,33.6,28.1
		C33.6,28.1,33.6,28.1,33.6,28.1C33.6,28.1,33.6,28.1,33.6,28.1z M33.7,28.5L33.7,28.5C33.7,28.5,33.7,28.5,33.7,28.5
		C33.7,28.5,33.7,28.5,33.7,28.5z M33.4,28.1c-0.1,0-0.1,0-0.2,0l0,0c0-0.2-0.1-0.7-0.3-0.8c-0.2-0.2-0.4,0-0.6,0.1
		c-0.1-0.3-0.4-0.6-0.6-0.7c0,0,0,0,0,0c-0.1-0.1-0.2-0.2-0.2-0.4c0-0.1,0.1-0.1,0.2-0.2c0.2-0.1,0.1-0.2,0.1-0.3
		c0-0.3,0-0.6,0.2-0.6c0.2-0.1,0.4,0.2,0.6,0.4l0.2,0.2c0.1,0,0.2-0.1,0.3-0.1c0.1-0.1,0.1-0.1,0.1-0.1c0.1,0.1,0.2,0.2,0.2,0.3
		c0,0.1,0,0.2,0,0.3c0,0.2,0.1,0.5,0.2,0.6c-0.1,0-0.1,0.1-0.2,0.1c-0.1,0.1-0.1,0.3-0.1,0.4C33.2,27.5,33.3,27.8,33.4,28.1z
		 M33,29.8c0,0.2,0.1,0.5,0.1,0.6c0,0.1,0,0.1,0,0.2c0,0.2-0.1,0.6-0.2,0.9c0,0-0.5-0.8-0.5-0.8c-0.2-0.4-0.3-0.7-0.3-1c0,0,0,0,0,0
		C32.5,29.9,32.7,29.9,33,29.8L33,29.8z M33.2,29.2c-0.1,0-0.1-0.1-0.2-0.2c0,0-0.2-0.2-0.4-0.3c-0.3-0.2-0.8-0.5-0.8-0.4
		c0,0.1,0.4,0.3,0.6,0.6c0.2,0.2,0.3,0.4,0.4,0.5c0,0,0,0,0,0c0,0,0,0.1,0.1,0.1l0,0c-0.3,0-0.4,0.1-0.7-0.1l-0.1-0.1
		c0,0,0-0.2,0-0.2c0,0,0-0.1,0-0.1c0,0,0,0-0.1,0l-0.3,0.1c-0.1,0.1-0.4,0.2-0.5,0.1c0,0-0.1,0-0.1-0.1c-0.1-0.2,0-0.3,0.1-0.3
		c0,0,0.1-0.1,0.1-0.2c0-0.1-0.2-0.2-0.3-0.2c-0.3,0-0.4-0.1-0.4-0.2c0-0.1,0.1-0.2,0.2-0.3c0,0,0.1-0.1,0.1-0.1c0,0,0-0.1,0-0.1
		c0,0-0.2-0.3,0-0.5c0.2-0.2,0.3,0,0.4,0c0,0,0.1,0.1,0.2,0c0.1,0,0.1-0.1,0.1-0.1c0,0,0-0.2,0.1-0.2c0.1,0,0.4,0.3,0.5,0.6
		c0,0,0.1,0.1,0.1,0.1c0.1,0,0.2,0,0.3-0.1c0,0,0.2-0.1,0.2-0.1c0.1,0.1,0.2,0.6,0.2,0.7c0,0,0,0.1,0.1,0.1c0.1,0.1,0.2,0,0.3,0
		l0.1,0C33.4,28.4,33.4,28.7,33.2,29.2z M30.9,29.2C30.9,29.2,30.9,29.2,30.9,29.2l0,0.1c0,0.2-0.3,0.4-0.4,0.5
		c-0.1-0.1-0.1-0.1-0.2-0.1c0-0.1-0.1-0.4-0.2-0.7c-0.1-0.7-0.1-0.9-0.2-0.9c-0.1,0-0.1,0.2-0.1,0.9c0,0.1,0,0.3,0.1,0.4
		c0,0,0,0-0.1-0.1l-0.2,0c0,0,0,0,0,0c0-0.3-0.2-0.5-0.3-0.7c0,0,0,0,0-0.1c0,0,0-0.1,0-0.2c0,0,0.2-0.2,0.2-0.2
		c0-0.1,0-0.2-0.1-0.2c-0.1-0.1-0.3-0.3-0.2-0.4c0,0,0,0,0.1-0.1l0.1-0.1c0.1-0.1,0.1-0.1,0.1-0.3c0-0.3,0-0.5,0.2-0.6l0.1,0
		c0.1,0.1,0.3,0.3,0.3,0.5c0,0,0,0,0,0.1c0.1,0.1,0.2,0,0.2,0c0.1-0.1,0.2-0.1,0.3,0c-0.1,0.1-0.2,0.3-0.2,0.4c0,0.1,0,0.3,0.1,0.4
		c-0.1,0.1-0.2,0.2-0.2,0.4c0,0.4,0.4,0.5,0.6,0.5c-0.1,0.1-0.1,0.2-0.1,0.3C30.9,29.1,30.9,29.2,30.9,29.2z M30.7,30.3
		C30.8,30.3,30.8,30.3,30.7,30.3c0.3,0.1,0.9,0.3,1.1,1.4c0.1,0.5,0.1,0.8,0.1,1c0,0.1,0,0.2,0,0.3c-0.3-0.2-1.1-0.9-1.1-1.8
		c0,0,0-0.1,0-0.1C30.9,30.7,30.8,30.4,30.7,30.3z M29,28.5c-0.1,0-0.1,0.1-0.1,0.1c-0.1-0.2-0.3-0.4-0.5-0.5
		c-0.2,0-0.3,0.1-0.3,0.2c-0.1-0.1-0.4-0.2-0.6-0.2c0,0-0.1,0-0.1,0.1c-0.2-0.1-0.4-0.1-0.6-0.1c0,0,0-0.1,0-0.1
		c0,0-0.2-0.2-0.2-0.2c-0.1-0.1-0.3-0.2-0.2-0.3c0-0.1,0.1-0.2,0.3-0.2l0,0c0,0,0.1,0,0.1,0l0.2-0.1l0-0.1c0-0.1,0-0.1,0.1-0.1
		c0.1,0.2,0.2,0.3,0.4,0.4c0,0.2,0.1,0.4,0.3,0.5c0.3,0.1,0.8,0.1,1.1-0.1c0.1,0.1,0.2,0.2,0.2,0.3c0,0,0,0,0,0c0,0-0.1,0.1-0.1,0.1
		C29,28.3,29,28.4,29,28.5C29,28.5,29,28.5,29,28.5z M26.1,29.3l0-0.2c0,0,0,0,0-0.1c0-0.1-0.1-0.2,0-0.2c0-0.1,0.1-0.1,0.2-0.1
		l0.1,0c0,0,0.1-0.1,0.1-0.1c0.1-0.1,0.3-0.2,0.6-0.2c0,0.1-0.1,0.1-0.1,0.2c0,0.2,0.1,0.3,0.2,0.4L26.7,30
		c-0.1-0.1-0.3-0.2-0.4-0.4L26.1,29.3z M27.8,27.1c-0.1,0.1-0.2,0.1-0.2,0.1c0,0,0,0,0,0c-0.3-0.2-0.5-0.6-0.5-0.9c0,0,0,0,0,0
		l0-0.2c0,0,0,0,0,0c0,0,0.1,0,0.1,0l0.1,0l0.1,0c0.2,0,0.5-0.1,0.9,0C28.3,26.3,28.1,26.8,27.8,27.1z M30.2,26.8
		C30.2,26.8,30.2,26.8,30.2,26.8C30.3,26.8,30.3,26.8,30.2,26.8C30.3,26.9,30.3,26.8,30.2,26.8z M29.9,24.2c0,0,0-0.2,0-0.2
		c0.1,0,0.2,0.1,0.2,0.1c0,0,0,0,0,0l0.2,0c0.2,0,0.5,0,0.7,0.5c-0.2,0.1-0.4,0.2-0.7,0.3c-0.2,0.1-0.4,0.2-0.5,0.3
		c-0.2-0.5-0.1-0.7,0-0.8l0-0.1L29.9,24.2z M29.9,25.8C29.9,25.8,29.9,25.8,29.9,25.8L29.9,25.8z M33.9,23.9
		C33.9,23.9,34,23.8,33.9,23.9c0.2-0.1,0.2-0.2,0.3-0.1c0.1,0,0.1,0.1,0.1,0.2l0,0.1c0.1,0.1,0.2,0.4,0.1,0.8c0,0,0,0,0,0
		c-0.1-0.1-0.7-0.3-1.2-0.3C33.4,24.1,33.7,23.9,33.9,23.9z M33.1,24.1C33.1,24.1,33.1,24.1,33.1,24.1L33.1,24.1
		C33,24.1,33,24.1,33.1,24.1z M35.9,25.4c0.1-0.1,0.3-0.2,0.3-0.4c0,0,0-0.1,0-0.1c0-0.1,0-0.2-0.1-0.2c0.1,0,0.1-0.1,0.2-0.1
		c0.1,0.1,0.2,0.2,0.2,0.3c0,0,0.1,0.1,0.1,0.1c0.1,0,0.2,0,0.4-0.1c0.2-0.1,0.4-0.2,0.5-0.1c0.1,0.1,0.1,0.2,0.1,0.2
		c-0.2,0.1-0.4,0.4-0.4,0.5c-0.3,0-0.5,0-0.8,0.2c-0.1,0-0.5,0.1-0.7,0.4c-0.1,0.1-0.1,0.2-0.1,0.3c0,0-0.1-0.1-0.1-0.1
		c0.2-0.2,0.4-0.4,0.4-0.7C36,25.5,36,25.4,35.9,25.4z M37.8,25.8l0,0.1l0,0.1c0,0,0,0.1,0,0.1c0,0.2,0,0.5-0.3,0.7
		c-0.3-0.1-0.5-0.2-0.6-0.4l-0.1-0.2c0-0.1,0-0.2,0-0.3c0.4-0.2,0.7-0.1,0.8-0.1c0,0,0,0,0,0L37.8,25.8c-0.1-0.1,0-0.1,0-0.1
		C37.9,25.7,37.8,25.8,37.8,25.8z M36.4,25.8C36.4,25.8,36.4,25.7,36.4,25.8C36.4,25.7,36.4,25.8,36.4,25.8
		C36.4,25.8,36.4,25.8,36.4,25.8z M36.1,26.2C36.1,26.2,36.1,26.2,36.1,26.2c0.1-0.1,0.1-0.2,0.2-0.2L36.1,26.2z M36.2,27.1
		C36.1,27.1,36.1,27,36.2,27.1c-0.1-0.2-0.1-0.3-0.2-0.4L36.2,27.1z M35.3,27.2c0-0.1-0.1-0.1-0.1-0.1c0.2-0.1,0.4-0.3,0.5-0.4
		c0,0.2,0.1,0.4,0.2,0.5c-0.2,0-0.5,0.3-0.7,0.4c0,0,0,0,0,0c0,0,0,0,0,0C35.3,27.5,35.3,27.4,35.3,27.2
		C35.3,27.3,35.3,27.2,35.3,27.2z M37.5,28.3C37.5,28.3,37.5,28.3,37.5,28.3L37.5,28.3C37.5,28.3,37.5,28.3,37.5,28.3z M37.5,28.4
		C37.5,28.4,37.5,28.3,37.5,28.4C37.5,28.3,37.5,28.3,37.5,28.4C37.5,28.3,37.5,28.3,37.5,28.4L37.5,28.4
		C37.5,28.4,37.5,28.4,37.5,28.4z M40.5,26.1l0,0.2c0.1,0.2,0.3,0.1,0.4,0.1c0.3-0.1,0.4-0.1,0.4,0.1c0.1,0.3,0,0.4-0.3,0.6
		l-0.2,0.1c-0.1,0.1,0,0.2,0.1,0.3c0,0,0.1,0.1,0.1,0.2c-0.1,0.1-0.4,0.1-0.7,0c-0.2,0-0.4-0.1-0.5,0c-0.1,0.1-0.1,0.2-0.1,0.3
		l0,0.1c0,0.1-0.2,0.1-0.4,0.1c-0.1,0-0.2,0-0.3,0.1c-0.2-0.1-0.5-0.1-0.9-0.1c0,0,0,0,0-0.1c0,0-0.1-0.1-0.2-0.1c0,0,0-0.1,0-0.1
		c0,0,0,0,0-0.1c0.4,0,1.2,0,1.4-0.4c0,0,0-0.1,0-0.1c0-0.1,0-0.2-0.1-0.3c0.4,0,1,0,1.1-0.4c0,0,0,0,0-0.1c0-0.2-0.1-0.4-0.3-0.4
		c0,0,0.1-0.1,0.1-0.1c0,0,0.1,0,0.1-0.1c0.2,0,0.2,0.1,0.3,0.1C40.6,26,40.6,26,40.5,26.1z M39.7,25.1c0.1-0.1,0.4-0.2,0.6-0.1
		c0,0,0.1,0,0.1,0.1c0.1,0.2,0,0.3-0.2,0.5c0,0,0,0-0.1,0c0,0-0.1,0.1-0.1,0.1c-0.2,0.1-0.3,0.2-0.3,0.3c0,0.1,0,0.1,0,0.1l0.1,0.1
		c0.1,0,0.2,0.1,0.2,0.3c0,0.1-0.1,0.2-0.8,0.2c-0.2,0-0.3,0-0.3,0.1c0,0.1,0,0.1,0.1,0.2c0,0.1,0.1,0.2,0.1,0.3
		c-0.1,0.3-0.9,0.3-1.1,0.2l-0.1,0c-0.1,0-0.1-0.1-0.2-0.1c0-0.1,0.1-0.2,0.1-0.3c0.1-0.1,0.2-0.2,0.3-0.3l0,0c0,0,0.1-0.1,0.2-0.1
		c0.4-0.3,0.9-0.8,0.8-0.8c-0.1,0-0.6,0.3-0.9,0.5c0-0.1,0-0.3,0-0.3c0,0,0-0.1,0-0.1c0-0.1,0.1-0.3,0-0.4c-0.1-0.1-0.3-0.1-0.4,0
		c0.1-0.1,0.2-0.2,0.3-0.3c0.1,0,0.2,0,0.3,0.1l0.2,0.1c0.1,0,0.2-0.1,0.3-0.2c0.2-0.2,0.3-0.4,0.5-0.3c0.1,0,0.1,0.1,0.1,0.2
		c0,0.1,0.1,0.2,0.2,0.2C39.5,25.2,39.7,25.1,39.7,25.1z M38.9,23.3C38.9,23.3,38.9,23.3,38.9,23.3C38.9,23.3,38.9,23.3,38.9,23.3z
		 M37.8,23.4C37.8,23.4,37.8,23.4,37.8,23.4C37.8,23.4,37.8,23.4,37.8,23.4z M36.9,23.9L36.9,23.9l0.2-0.1c0-0.1,0.2-0.3,0.3-0.3
		c0,0,0.1,0.1,0.1,0.1l0.2,0.1l0.3-0.2c0.1-0.1,0.3-0.3,0.4-0.3c0.1,0,0.1,0.1,0.2,0.2l0.1,0.2l0.2,0c0.2-0.1,0.4-0.1,0.6,0
		c0,0.1,0,0.1,0,0.1c0,0.1-0.2,0.3-0.4,0.3c0,0-0.1,0-0.1,0.1c0,0,0,0.1,0,0.1c0,0.1,0.1,0.2,0.1,0.3c-0.4-0.1-0.6,0.3-0.8,0.4
		c0,0-0.1,0.1-0.1,0.1c0,0,0,0,0,0c-0.1-0.1-0.2-0.1-0.3-0.2c0-0.1-0.1-0.2-0.2-0.3c0.1,0,0.1-0.1,0.2-0.1c0.3-0.2,0.5-0.3,0.5-0.4
		c0-0.1-0.4,0.1-0.6,0.2c-0.1,0.1-0.2,0.1-0.3,0.2c-0.3-0.1-0.5,0.1-0.7,0.2c0,0-0.1,0-0.1,0.1c0-0.1-0.1-0.2-0.2-0.3
		C36.8,24.2,36.9,24.1,36.9,23.9z M36.7,23.6C36.7,23.6,36.7,23.6,36.7,23.6C36.7,23.5,36.7,23.5,36.7,23.6
		C36.7,23.5,36.7,23.5,36.7,23.6z M35.8,23.1l0.3-0.2c0.1-0.1,0.3-0.3,0.5-0.3c0.1,0,0.2,0,0.3,0.1c0.1,0.1,0.1,0.1,0.1,0.2
		c0,0.1-0.2,0.3-0.3,0.4l-0.2,0.2c0,0.1,0.1,0.2,0.1,0.2c0.1,0,0.1,0.1,0.1,0.2c0,0.1-0.1,0.2-0.3,0.3c0,0,0,0-0.1,0
		c-0.1,0.1-0.2,0.1-0.3,0.2c0,0-0.1,0.1-0.1,0.1c0,0.1,0,0.1,0.1,0.2c0,0.1,0.1,0.1,0.1,0.2c0,0.1-0.2,0.2-0.3,0.3c0,0-0.1,0-0.1,0
		c0,0,0,0,0,0c0,0,0-0.1,0-0.1c0-0.2,0-0.4-0.2-0.5c-0.1,0-0.2,0-0.3,0c0.1-0.1,0.1-0.2,0.2-0.2c0.2-0.3,0.5-0.5,0.4-0.6
		c-0.1-0.1-0.4,0.1-0.7,0.4c-0.1,0.1-0.2,0.2-0.3,0.3c0-0.2-0.1-0.4-0.2-0.6c0,0,0,0,0,0c0-0.1,0-0.1-0.1-0.2
		c0.1-0.1,0.2-0.1,0.3-0.1l0.1,0c0.1,0,0.2-0.1,0.2-0.2c0.1-0.2,0.2-0.5,0.4-0.6l0.1,0c0,0,0.1,0.1,0.1,0.1
		C35.6,23,35.6,23.1,35.8,23.1z M34.2,20.9l0.2,0.1c0.1,0,0.2-0.1,0.3-0.2c0.1-0.2,0.3-0.4,0.5-0.3c0.2,0,0.2,0.2,0.1,0.5
		c0,0.1,0,0.2,0,0.3c0,0,0.1,0.1,0.1,0.1c0.1,0,0.2,0,0.3,0.2c0.1,0.1-0.2,0.4-0.4,0.5c-0.1,0-0.1,0.1-0.1,0.2
		c0,0.1,0.1,0.1,0.1,0.1c0,0,0.1,0,0.1,0c0,0,0,0.1,0,0.1l-0.2,0c-0.3,0.1-0.4,0.5-0.5,0.7c0,0,0,0,0,0c-0.1,0-0.2,0-0.3,0
		c0.1-0.2,0.1-0.3,0.1-0.5c0,0,0-0.1,0-0.1c-0.1-0.1-0.2-0.2-0.3-0.2c0.1-0.2,0.3-0.4,0.3-0.7c0-0.1,0-0.3-0.1-0.5
		c-0.1-0.1-0.2-0.1-0.3-0.1c0,0,0-0.1,0-0.1c0-0.1,0-0.1,0-0.2C34.1,20.9,34.1,20.9,34.2,20.9z M34,21.3C34,21.3,34,21.4,34,21.3
		c0,0,0,0.1,0,0.1C34,21.4,34,21.4,34,21.3z M32.3,22.6c0.1-0.1,0.2-0.1,0.3-0.1c0,0,0.1,0,0.1-0.1c0.1-0.1,0-0.2-0.1-0.4
		c-0.1-0.2-0.3-0.6-0.1-0.6c0,0,0.1,0,0.2,0l0.3,0c0.1,0,0.1-0.1,0.2-0.3c0.1-0.2,0.2-0.5,0.3-0.5c0.1,0,0.2,0.1,0.2,0.1
		c0.1,0.2,0.1,0.5,0,0.6c0,0.1,0,0.1,0,0.2c0.1,0.1,0.2,0,0.2,0c0,0,0.1-0.1,0.1-0.1c0.2,0.3,0,0.6-0.2,0.9
		c-0.1,0.1-0.1,0.2-0.1,0.2c0,0.1,0.1,0.1,0.2,0.1c0.1,0,0.2,0,0.2,0.1c0,0.1-0.1,0.4-0.3,0.7c-0.1,0-0.1,0.1-0.2,0.1
		c-0.1,0.1-0.4,0.2-0.5,0.3c0.1-0.2,0.2-0.7,0.2-1c0-0.4,0-0.7-0.1-0.7c-0.1,0-0.1,0.4-0.2,0.8c-0.1,0.4-0.2,0.8-0.2,0.9
		c0,0-0.1,0-0.1,0c0,0-0.1,0-0.1,0c0,0,0,0,0,0c0.1-0.1,0.2-0.3,0.2-0.6c0-0.2-0.1-0.4-0.3-0.6C32.5,22.6,32.4,22.6,32.3,22.6
		C32.3,22.6,32.3,22.6,32.3,22.6z M31.9,22.9l0.2,0.2c0.1,0,0.2-0.1,0.2-0.1l0.1-0.1c0.3,0.2,0.2,0.4,0,0.8l-0.1,0.2
		c0,0.2,0.3,0.2,0.4,0.2l0.2,0c-0.1,0.1-0.1,0.2-0.1,0.3c-0.1,0-0.2,0.1-0.3,0.2c-0.1,0.1-0.1,0.3-0.1,0.4c-0.1-0.1-0.2-0.2-0.4-0.2
		c0-0.1-0.1-0.2-0.1-0.4c-0.1-0.4-0.2-0.8-0.3-0.7c-0.1,0-0.1,0.4,0,0.8c0,0.1,0.1,0.3,0.1,0.4c-0.1,0-0.2,0.1-0.2,0.1
		c0-0.1-0.1-0.2-0.1-0.2c-0.1-0.1-0.1-0.1-0.2-0.1c0-0.1-0.1-0.2-0.1-0.2c0.1-0.1,0.1-0.1,0.1-0.1c0-0.1,0-0.1-0.1-0.2
		c-0.2-0.3-0.3-0.4-0.3-0.5c0-0.1,0.1-0.1,0.1-0.1c0.1,0,0.2,0,0.2-0.1c0.1-0.1,0.1-0.2,0-0.3c0-0.3,0-0.5,0.1-0.6
		C31.6,22.5,31.8,22.8,31.9,22.9z M31,23.2C31,23.2,31,23.2,31,23.2C31,23.3,31,23.3,31,23.2C31,23.3,31,23.3,31,23.2z M29.9,21.1
		C29.9,21.1,29.9,21.2,29.9,21.1C29.9,21.1,29.9,21.1,29.9,21.1L29.9,21.1z M29.7,21.4c0-0.1,0.1-0.1,0.2-0.1c0.1,0,0.2,0,0.2-0.1
		c0.1-0.1,0-0.2,0-0.3c-0.1-0.2-0.2-0.5-0.1-0.6c0.2-0.1,0.5,0.3,0.6,0.4l0.1,0.1c0,0,0.1,0,0.2-0.1c0-0.1,0-0.1,0.2,0
		c0.1,0,0.2,0.5,0.1,0.7c0,0.1,0,0.1,0.1,0.1c0.1,0,0.1,0,0.2,0c0,0,0.1-0.1,0.1-0.1c0,0.1,0,0.5,0,0.9c-0.1-0.1-0.2-0.1-0.4,0
		c-0.1,0-0.2,0.1-0.2,0.1c-0.2-0.1-0.3-0.1-0.4,0c0-0.3-0.1-0.9-0.5-0.9c-0.2,0-0.3,0.1-0.4,0.3C29.8,21.6,29.7,21.5,29.7,21.4z
		 M28.5,23c0-0.1,0.1-0.1,0.2-0.2c0.1,0,0.1-0.1,0.2-0.1l-0.1-0.2c-0.2-0.3-0.3-0.6-0.1-0.7c0.3-0.2,0.5,0,0.8,0.3
		c0.1,0.1,0.2,0.2,0.3,0.2c0.1,0,0.2-0.1,0.2-0.2c0-0.1,0.1-0.2,0.2-0.2c0.2,0,0.3,0.6,0.3,0.8c0,0.1,0,0.2,0.1,0.3
		c0.1,0,0.1,0,0.2,0c0.1,0,0.1-0.1,0.3,0c0,0.1,0,0.1,0,0.2c0,0.1,0,0.2,0,0.3c0,0,0,0,0,0.1c-0.1,0-0.3,0-0.4,0.2c0,0,0,0.1,0,0.1
		c0,0.2,0.1,0.3,0.2,0.5c-0.1-0.1-0.2-0.1-0.3-0.1c0-0.1-0.1-0.3-0.2-0.6c-0.1-0.2-0.5-0.6-0.6-0.5c-0.1,0.1,0.2,0.4,0.3,0.6
		c0.1,0.1,0.1,0.2,0.2,0.3c-0.1-0.1-0.2-0.1-0.4,0c-0.2,0.1-0.2,0.3-0.2,0.5c-0.4-0.1-0.4-0.1-0.4-0.1c0,0,0-0.1,0.1-0.1l0.2-0.3
		c0-0.2-0.2-0.2-0.3-0.3C28.8,23.4,28.5,23.3,28.5,23z M27.8,24c0.2-0.2,0.5-0.1,0.7,0.1l0.3,0.1c0,0,0,0,0.1,0
		c0,0.2,0.3,0.3,0.6,0.4c-0.1,0.2-0.1,0.5,0.1,1c0,0,0,0,0,0c0,0,0,0,0,0c-0.1,0.1-0.1,0.2-0.1,0.3c0,0.2,0.3,0.4,0.5,0.5
		c0.3,0.1,0.6,0.1,0.9,0.1l0.1,0l0,0c0,0,0,0,0,0c0,0.2,0.1,0.3,0.2,0.4c-0.1,0.1-0.1,0.1-0.1,0.2c-0.1,0-0.2-0.1-0.3,0
		c-0.2-0.3-0.5-0.2-0.7-0.2c-0.1-0.2-0.2-0.4-0.4-0.5l-0.3,0c0,0-0.1,0-0.1,0.1c-0.1-0.3-0.3-0.4-0.5-0.5c0,0,0,0-0.1,0
		c0-0.1,0-0.2,0-0.3c0-0.2-0.2-0.2-0.4-0.2c-0.3,0-0.4-0.1-0.4-0.2l0.1-0.2l0.1-0.3c0,0-0.2-0.3-0.2-0.3
		C27.8,24.2,27.7,24.1,27.8,24z M27.7,25.3C27.7,25.3,27.7,25.3,27.7,25.3C27.7,25.3,27.7,25.3,27.7,25.3z M25.1,25.2
		c0-0.1,0.1-0.1,0.2-0.1l0.2-0.1c0.1-0.1,0-0.2,0-0.3c-0.1-0.3-0.1-0.5,0.1-0.6c0.1,0,0.1,0,0.3,0.2l0.2,0.2c0.2,0,0.3-0.1,0.3-0.2
		c0-0.1,0.1-0.2,0.1-0.2c0.1,0,0.2,0.4,0.2,0.5c0,0.2,0,0.3,0.2,0.3c0.1,0,0.3-0.1,0.3-0.1c0.1-0.1,0.1-0.1,0.1-0.1
		c0.1,0,0.1,0.3,0.1,0.5c0,0.2,0,0.3,0.1,0.4c0.1,0,0.2,0.1,0.4,0c0.2,0.1,0.4,0.2,0.5,0.2c0,0,0.1,0,0.1,0c0,0,0,0,0,0
		c0,0.1,0,0.1,0,0.2c-0.5-0.2-0.9-0.1-1.1,0l-0.1,0l-0.1,0L26.9,26c0,0,0,0,0,0c-0.1-0.1-0.3-0.3-0.5-0.4c-0.2-0.3-0.3-0.6-0.4-0.6
		c-0.2,0.1,0.1,0.5,0.2,0.7c0.2,0.3,0.5,0.6,0.7,0.7l0,0c0,0.1,0,0.3,0,0.4c-0.2,0.1-0.2,0.3-0.3,0.3c0,0,0,0,0,0c0,0-0.1,0-0.1,0
		c0,0,0,0,0,0c0-0.1-0.1-0.2-0.1-0.3c0-0.1-0.1-0.3-0.2-0.3c-0.1-0.1-0.3,0-0.4,0c0,0-0.1,0-0.2,0c0,0-0.1-0.1-0.1-0.1c0,0,0,0,0,0
		c-0.1-0.1-0.2-0.3-0.2-0.3c0,0,0,0,0,0c0.1-0.1,0.2-0.2,0.3-0.2c0.1,0,0.1,0,0.2-0.1c0-0.1-0.1-0.2-0.2-0.2
		C25.1,25.4,25,25.3,25.1,25.2z M24.9,28c-0.2,0.1-0.3,0.1-0.3,0.1l0-0.1c0-0.1,0.1-0.2,0.2-0.2c0,0,0.1-0.1,0.1-0.2
		c0-0.1-0.1-0.1-0.1-0.1c-0.1,0-0.5-0.1-0.6-0.3c0-0.1,0-0.2,0-0.3c0.1-0.2,0.2-0.2,0.4-0.1l0.2,0c0.1-0.1,0.1-0.2,0.1-0.3
		c0-0.2,0-0.2,0.1-0.2c0.2-0.1,0.4,0,0.5,0.2l0.2,0.3l0.1,0.1c0.1,0.1,0.3,0,0.4,0c0,0,0.2-0.1,0.2-0.1c0,0,0,0,0,0c0,0,0,0.1,0,0.1
		c0,0.1,0,0.2,0.1,0.3c-0.1,0.1-0.3,0.2-0.3,0.4c0,0,0,0.1,0,0.1c0,0.3,0.3,0.5,0.4,0.5c0,0,0,0,0,0c0,0,0,0.1,0,0.1c0,0,0,0,0,0
		c-0.1,0-0.1,0.1-0.1,0.1c-0.1,0-0.4,0-0.5,0.2c0,0,0,0,0,0c-0.1-0.1-0.1-0.1-0.2-0.2c0.1-0.1,0.2-0.4,0.1-0.5
		C25.5,27.7,25.2,27.9,24.9,28z M24.5,30.2l-0.2,0.1c-0.2,0.1-0.3,0.2-0.5,0.1c-0.1,0-0.1-0.1,0.1-0.2c0.1-0.1,0.1-0.2,0.1-0.3
		l-0.2-0.1c-0.3-0.1-0.5-0.2-0.5-0.4c0-0.1,0.1-0.1,0.1-0.1c0.1-0.1,0.2,0,0.4,0l0.3,0c0.1-0.1,0.1-0.2,0.1-0.3c0-0.2,0-0.2,0-0.2
		c0.2,0,0.4,0.2,0.5,0.3c0.1,0.1,0.2,0.2,0.3,0.1c0.1,0,0.1-0.1,0.2-0.2c0-0.1,0-0.1,0.1-0.2c0.1,0,0.3,0.2,0.5,0.5c0,0,0,0,0,0
		c0,0,0,0,0,0.1c0,0,0,0.2,0,0.2l0.1,0.2c-0.1,0-0.3-0.1-0.4-0.1c-0.3,0-1.2,0-1.2,0.1c0,0.1,0.8,0.1,1,0.1c0.1,0,0.1,0,0.2,0
		c-0.1,0.1-0.1,0.2-0.1,0.3c0,0,0,0.1,0,0.1c0,0,0,0,0,0.1c0,0,0,0,0,0c-0.2-0.1-0.4-0.3-0.7-0.1C24.6,30.2,24.6,30.2,24.5,30.2z
		 M24.9,31.7C24.9,31.7,24.9,31.7,24.9,31.7C24.9,31.7,24.9,31.8,24.9,31.7z M26.3,31.6c0,0-0.1,0.1-0.1,0.1l0,0
		c0,0-0.1-0.1-0.1-0.1l-0.2,0.1c-0.1,0.1-0.5,0.4-0.7,0.3c-0.1-0.1-0.1-0.1-0.1-0.2L25,31.5c0,0-0.3-0.1-0.3-0.1
		c-0.3,0-0.4,0-0.4-0.2c0,0,0-0.1,0-0.1c0-0.1,0.2-0.1,0.2-0.1l0.2-0.1l0-0.3l0-0.2c0.1-0.1,0.2,0,0.4,0.1c0.1,0.1,0.3,0.2,0.4,0.1
		c0.1-0.1,0.1-0.2,0.1-0.4c0-0.1,0-0.2,0-0.2c0.1-0.1,0.3-0.1,0.5,0c0,0,0,0,0,0c0.1,0.1,0.3,0.2,0.3,0.2c-0.1,0.1,0,0.4,0.2,0.5
		c0,0,0.1,0.1,0.3,0.2c-0.1,0.1-0.1,0.1-0.1,0.2c0,0,0,0,0,0c0,0,0,0.1,0,0.1C26.7,31.3,26.5,31.3,26.3,31.6z M28.6,32.4
		C28.6,32.4,28.6,32.3,28.6,32.4c0-0.1-0.1-0.2-0.2-0.2c0,0-0.1,0-0.2,0c-0.1,0.1-0.2,0.2-0.2,0.4c-0.1,0.2-0.2,0.5-0.5,0.5
		c-0.1,0-0.1,0-0.2-0.1c0-0.1-0.1-0.3-0.3-0.3l-0.3,0.1c-0.1,0.1-0.4,0.2-0.5,0.2c-0.1-0.2,0-0.4,0.2-0.6l0.1-0.1
		c0.1-0.1,0-0.2-0.1-0.3c-0.1-0.1-0.1-0.1,0-0.3c0.1-0.2,0.3-0.2,0.5-0.1c0.1,0,0.2,0,0.3,0c0,0,0-0.1,0-0.1c0-0.1-0.1-0.2-0.1-0.2
		c0,0-0.1-0.1-0.1-0.1c0,0,0.1,0,0.1,0c0.2-0.1,0.6,0.1,0.7,0.1c0.1,0,0.1,0.1,0.2,0c0,0,0.1-0.1,0.1-0.1c0-0.1,0-0.1-0.1-0.2
		L28,30.8c0,0,0.1-0.1,0.2,0c0.1,0,0.1,0,0.2,0c0,0.1-0.1,0.1-0.1,0.2c0,0,0,0.1,0,0.1c0,0.1,0.1,0.1,0.2,0.2
		c-0.4,0.1-0.6,0.3-0.8,0.5c-0.2,0.1-0.5,0.4-0.5,0.5c0,0.1,0.9-0.4,1.3-0.6c0.1,0,0.3-0.1,0.5-0.1c0,0,0,0,0,0
		C28.9,31.9,28.7,32.3,28.6,32.4z M28.5,31C28.6,31,28.6,30.9,28.5,31l0.2-0.3c0-0.1-0.2-0.1-0.3-0.1c-0.1,0-0.1,0-0.2,0
		c0,0,0,0,0,0c0,0,0,0,0,0c-0.2,0-0.4-0.1-0.5-0.3c0,0,0.1-0.1,0.1-0.1c0.1-0.1,0.2-0.2,0.1-0.3l-0.2-0.1c-0.3,0-0.3-0.1-0.3-0.2
		c0,0,0.1-0.1,0.1-0.1c0.1,0,0.2-0.1,0.2-0.2L27.5,29c-0.2-0.2-0.2-0.3-0.2-0.4c0-0.1,0.1-0.1,0.1-0.1c0.1,0,0.4,0.1,0.5,0.2
		l0.1,0.1c0.1,0.1,0.2-0.1,0.3-0.2c0,0,0-0.1,0-0.1c0.3,0.1,0.4,0.3,0.4,0.5c0,0.1,0.1,0.1,0.1,0.1c0.1,0,0.1,0,0.2-0.1
		c0-0.1,0.1-0.2,0.1-0.3c0.1,0.1,0.3,0.4,0.3,0.8c0,0.1,0,0.1,0.1,0.1c0.1,0,0.1,0,0.2-0.1c0-0.1,0.1-0.1,0.1-0.1
		c0.1,0,0.2,0.3,0.2,0.8l0,0.1c-0.1,0-0.3-0.1-0.5-0.2c0,0,0,0,0,0c0,0,0,0,0,0c-0.2-0.1-0.3-0.2-0.5-0.4c0,0-0.5-0.3-0.5-0.2
		c-0.1,0.1,0.4,0.5,0.4,0.5c0.2,0.1,0.4,0.3,0.5,0.4c0,0,0,0,0,0c0.2,0.2,0.3,0.4,0.3,0.4C29,31.1,28.6,31.1,28.5,31z M28.1,37.7
		L28.1,37.7C28.1,37.7,28.1,37.7,28.1,37.7C28.1,37.7,28.1,37.7,28.1,37.7z M28.3,39c-0.3,0-0.5-0.1-0.5-0.1c-0.1,0-0.1,0-0.2,0
		c0,0-0.1,0.1-0.4,0.1c-0.3,0-0.5-0.1-0.7-0.3c-0.1-0.1-0.1-0.5,0-0.7c0.1-0.2,0.3-0.3,0.7-0.3c0.3,0,0.6,0.1,0.8,0.3l0.6,0.9
		c0,0,0.1,0.1,0.1,0.1C28.6,38.9,28.4,39,28.3,39z M32.5,39c-0.3,0-0.4-0.1-0.4-0.1c-0.1,0-0.2,0-0.2,0c0,0-0.1,0.1-0.4,0.1
		c-0.2,0-0.5-0.1-0.6-0.3l-0.6-0.9c0,0-0.1-0.1-0.1-0.1c0.1,0,0.2,0,0.3,0c0.3,0,0.4,0.1,0.4,0.1c0.1,0,0.2,0,0.2,0
		c0,0,0.1-0.1,0.4-0.1c0.2,0,0.5,0.1,0.6,0.3l0.6,0.9c0,0,0.1,0.1,0.1,0.1C32.8,38.9,32.7,39,32.5,39z M31.2,37.3
		c-0.1,0-0.2,0.1-0.3,0.1c-0.1-0.1-0.3-0.1-0.5-0.1c0,0,0,0,0,0c0.3-0.2,0.6-0.1,0.8-0.1C31.2,37.2,31.2,37.3,31.2,37.3z M32.3,37.7
		L32.3,37.7C32.3,37.7,32.3,37.7,32.3,37.7C32.3,37.7,32.3,37.7,32.3,37.7z M33.1,37.4c-0.1-0.1-0.3-0.1-0.5-0.1c-0.1,0-0.1,0-0.2,0
		c0.1-0.2,0.2-0.3,0.4-0.3c0.1,0,0.1,0,0.2,0.1C33.1,37.2,33.1,37.3,33.1,37.4C33.1,37.4,33.1,37.4,33.1,37.4z M36.8,39
		c-0.3,0-0.4-0.1-0.4-0.1c-0.1,0-0.2,0-0.2,0c0,0-0.1,0.1-0.4,0.1c-0.2,0-0.5-0.1-0.6-0.3l-0.6-0.9c0,0-0.1-0.1-0.1-0.1
		c0.1,0,0.2-0.1,0.3-0.1c0.3,0,0.4,0.1,0.4,0.1c0.1,0,0.2,0,0.2,0c0,0,0.1-0.1,0.4-0.1c0.2,0,0.5,0.1,0.6,0.3c0,0,0.6,0.9,0.6,0.9
		c0,0,0.1,0.1,0.1,0.1C37,38.9,36.9,39,36.8,39z M34.2,32.2c-0.8,1.2-0.4,2.9-0.2,3.3l0,0c0.2,0.3,0.4,0.8,1.5,1.2l0.1,0.1
		c0.7,0.3,0.9,0.4,1.1,0.5c-0.2,0-0.3,0.1-0.4,0.1c-0.2-0.1-0.3-0.2-0.5-0.2c-0.1,0-0.2,0-0.3,0c0-0.1-0.1-0.2-0.1-0.2
		c-0.2-0.3-0.5-0.4-0.7-0.6c-0.4-0.2-0.8-0.3-1-0.9c-0.1-0.3-0.2-0.8-0.2-1.1c0-0.3-0.1-1.2-0.2-1.2c-0.1,0-0.1,0.9-0.1,1.2
		c0,0.4,0.1,0.9,0.2,1.2c0.3,0.7,0.8,0.9,1.1,1.1c0.3,0.1,0.5,0.2,0.6,0.5l0,0c-0.1,0-0.3-0.1-0.5-0.1c-0.3,0-0.5,0.1-0.6,0.1
		c-0.2-0.1-0.3-0.2-0.5-0.2c-0.1,0-0.1,0-0.2,0c0-0.1-0.1-0.3-0.2-0.4c-0.1-0.1-0.2-0.2-0.4-0.2c-0.3,0-0.6,0.3-0.8,0.7c0,0,0,0,0,0
		c0,0,0,0,0,0c-0.2-0.1-0.3-0.1-0.5-0.1c0-0.1,0-0.1,0-0.2c0,0,0,0,0,0c0,0,0,0,0-0.1c0-0.1,0-0.2,0.1-0.3c0-0.1,0.1-0.2,0.2-0.3
		c0.3-0.6,0.4-1.1,0.3-1.1c-0.1,0-0.3,0.7-0.5,1c-0.1,0.1-0.1,0.2-0.2,0.3c-0.1,0.1-0.1,0.2-0.1,0.3c-0.3,0-1-0.1-1.3,0.5
		c0,0,0,0,0,0c0,0,0,0,0,0c-0.2-0.1-0.3-0.1-0.5-0.1c-0.3,0-0.4,0.1-0.5,0.1c0,0,0,0,0,0c0.4-0.3,1-0.6,1.4-0.8l0.2-0.1
		c0.6-0.3,1.1-1,1.2-1.9c0-0.1,0-0.1-0.5-0.9c-0.2-0.4-0.5-0.8-0.5-0.9c-0.1-0.2-0.7-1.2-1.4-1.5c0.1,0,0.3-0.1,0.4-0.1
		c0.1,0,0.2-0.1,0.2-0.2c0,0,0,0,0-0.1c0-0.1,0-0.2-0.1-0.2c0.1,0,0.2,0,0.3,0c0.1,0,0.2-0.1,0.2-0.3c0-0.1,0-0.3,0-0.4c0,0,0,0,0,0
		c0.1,0,0.4,0.2,0.4,1.1c0,1.3,1.3,2.2,1.4,2.2c0,0,0.1,0,0.2,0c0.1-0.1,0.1-0.3,0.1-0.6c0-0.3-0.1-0.7-0.1-1.1
		c-0.2-1.3-1-1.5-1.3-1.6l-0.1,0c0.1-0.1,0.3-0.2,0.3-0.4c0,0,0,0,0,0c0.2,0.1,0.5,0,0.7-0.1l0,0c0,0.3,0,0.8,0.3,1.4l0.4,0.7
		l0.2,0.4c0,0.1,0.1,0.1,0.2,0.1c0.2-0.1,0.4-1.3,0.4-1.3c0-0.1,0-0.1,0-0.2c0-0.3-0.1-0.7-0.2-1c0,0,0,0,0,0c0,0,0,0,0.1,0
		c0.1,0,0.2,0,0.2-0.1c0.1-0.2,0.1-0.4,0.1-0.6c0,0,0,0.1,0,0.1l0.1,0.3c0.1,0.1,0.2,0.1,0.4-0.1c0.1,0,0.2-0.1,0.3-0.1
		c-0.2,0.2-0.3,0.5-0.5,0.9c-0.1,0.3-0.1,0.7-0.2,1.1c0,0.2,0,0.5-0.1,0.6c0,0,0,0,0,0.1c0,0.1,0,0.1,0.1,0.1c0.1,0,0.1,0,0.2,0
		c0.2-0.2,0.5-0.7,0.9-1c-0.1,0.2-0.1,0.3-0.1,0.4c0,0,0,0,0,0c0,0,0,0.1,0.1,0.1c0,0,0.1,0,0.2,0c0,0,0.2-0.1,0.6-0.1v0
		c0,0,0,0,0,0C35.2,31.2,34.6,31.5,34.2,32.2z M35.1,30.9c0.1-0.2,0.2-0.4,0.2-0.5c0-0.1,0.1-0.1,0.3-0.2c0,0,0.4-0.2,0.4-0.3
		c-0.1-0.1-0.4,0.1-0.5,0.1c-0.2,0.1-0.4,0.2-0.4,0.2c-0.1,0.1-0.3,0.2-0.4,0.3c0-0.1-0.1-0.2,0-0.4l0.2-0.1
		c0.1-0.1,0.3-0.1,0.3-0.3c0.2,0,0.4,0,0.4,0c0.1-0.1,0.2-0.2,0.2-0.3c0,0,0,0,0,0c0.2,0.1,0.6,0.2,1-0.1c0.1-0.1,0.1-0.1,0.1-0.2
		c0,0,0-0.1,0-0.1c0.1,0,0.2,0,0.3,0c0,0,0,0,0,0.1c0,0,0,0,0,0c0,0.1-0.1,0.1-0.2,0.2l-0.2,0.2c0,0,0,0.1,0,0.1
		c0,0.1,0.1,0.1,0.1,0.2c0,0,0.1,0.1,0.1,0.1c0,0,0,0,0,0c0,0.2-0.2,0.2-0.5,0.3l-0.3,0.1c0,0-0.1,0.1-0.1,0.1
		c0,0.1,0.1,0.2,0.1,0.2l0.1,0.1c0,0,0,0,0,0c-0.1,0-0.3,0.1-0.4,0.1l-0.2,0.1C35.4,30.8,35.2,30.8,35.1,30.9z M38.7,32.7
		c-0.1,0.1-0.2,0.1-0.4,0l-0.1,0c-0.1,0-0.2,0.1-0.2,0.1c0,0.1-0.1,0.1-0.2,0.1c-0.1,0-0.3-0.1-0.4-0.2l-0.2-0.1
		c-0.1,0-0.2,0.1-0.2,0.1c0,0.1-0.1,0.1-0.2,0.1c-0.1,0-0.3-0.4-0.4-0.5c-0.1-0.2-0.1-0.3-0.2-0.3c-0.1,0-0.2,0-0.2,0.1
		c-0.1-0.1-0.2-0.5-0.2-0.9c0.2,0.1,0.5,0.2,0.7,0.4c0.2,0.1,0.5,0.4,0.5,0.3c0.1-0.1-0.2-0.4-0.4-0.5c-0.2-0.1-0.4-0.3-0.6-0.3
		c0.6-0.2,0.9-0.2,1-0.1c0,0,0,0.1,0,0.1l0,0.1c0,0.1,0.2,0.2,0.5,0.2c0.1,0,0.4,0,0.5,0.1c0,0,0,0,0,0c0,0,0,0,0,0.1
		c0,0-0.1,0.1-0.1,0.2c0,0,0,0.1,0,0.1c0,0.1,0.1,0.1,0.3,0.2c0.1,0,0.3,0.1,0.3,0.1c0,0,0,0,0,0c0,0-0.1,0.1-0.1,0.2c0,0,0,0,0,0
		l0.1,0.2C38.6,32.6,38.7,32.6,38.7,32.7C38.7,32.7,38.7,32.7,38.7,32.7z M38.2,31.6C38.2,31.6,38.2,31.6,38.2,31.6L38.2,31.6
		C38.2,31.6,38.2,31.6,38.2,31.6z M39.6,31.3c0,0.1-0.1,0.1-0.3,0.1l-0.3,0L39,31.6c0,0.1,0,0.1,0,0.1c-0.1,0-0.2,0-0.3,0l-0.1,0
		c-0.1,0-0.2-0.1-0.2-0.1c0,0,0,0-0.1,0c0-0.1,0.1-0.1,0.1-0.2c0-0.1,0-0.1-0.1-0.2c-0.1-0.1-0.3-0.2-0.7-0.2c0,0-0.1,0-0.2,0
		c0,0,0-0.1,0-0.1c0-0.1,0-0.2-0.1-0.2c-0.1-0.1-0.4-0.1-0.8,0c0,0-0.1-0.1-0.1-0.2c0,0,0,0,0,0c0.2,0,0.4-0.1,0.6-0.2
		c0.4,0.3,1,0.2,1.3,0.1c0,0,0,0,0.1,0c0,0.1,0.1,0.1,0.2,0.2l0.3,0c0.1,0,0.3-0.1,0.4,0c0.1,0.1,0.1,0.1,0.1,0.2l0,0.3
		c0,0.1,0.1,0.1,0.2,0.2C39.6,31.1,39.6,31.1,39.6,31.3z M40,30.9C40,30.9,40,31,40,30.9C40,31,40,31,40,30.9z M41,30.6
		C41,30.6,41,30.6,41,30.6C41,30.6,41,30.6,41,30.6C41,30.6,41,30.6,41,30.6C41,30.6,41,30.6,41,30.6z M41.5,30.2
		c0,0.1,0,0.1-0.1,0.2c-0.1,0.1-0.3,0-0.4,0l-0.2,0c-0.1,0.1-0.1,0.1-0.1,0.2c0,0.1,0,0.2-0.1,0.2c-0.1,0-0.3-0.1-0.4-0.1
		c-0.1-0.1-0.2-0.1-0.3,0c0,0-0.1,0.1-0.1,0.1c0,0.1,0,0.1,0,0.1c-0.1-0.1-0.2-0.2-0.3-0.2c0,0,0,0,0,0c0,0,0.1-0.1,0.1-0.2
		c0-0.1,0-0.2-0.2-0.4c-0.2-0.1-0.4-0.1-0.6,0l-0.2,0c0,0-0.1-0.1-0.1-0.2c0.1,0,0.1,0,0.2-0.1c0.1,0,0.1,0,0.2,0
		c0.3,0,1.3,0.2,1.3,0c0-0.1-0.6-0.2-1-0.3c0.2-0.2,0.3-0.4,0.3-0.5c0,0,0,0,0,0c0,0,0,0,0,0c0,0,0.1,0.1,0.1,0.2
		c0,0.1,0,0.2,0.1,0.2c0.1,0,0.1,0,0.3-0.1c0.2-0.1,0.5-0.3,0.7-0.2c0.1,0.1,0.1,0.2,0,0.3c-0.1,0.1,0,0.2,0.1,0.3l0.1,0
		C41.4,29.8,41.6,29.9,41.5,30.2z"/>
</g>
<g>
	<path class="st0" d="M207.4,80.1c-0.1,0-0.1-0.1-0.1-0.1V32.5c0-0.1,0.1-0.1,0.1-0.1s0.1,0.1,0.1,0.1V80
		C207.5,80.1,207.5,80.1,207.4,80.1z"/>
</g>
<g>
	<g>
		<path class="st0" d="M270.2,33.4l-6,18.7h1.5l1.9-6.2h7.4l1.9,6.2h1.5l-5.9-18.7H270.2z M268,44.8l3.2-10.3h0.3l3.3,10.3H268z"/>
		<path class="st0" d="M285.6,51.4c-2.8,0-4.5-2.3-4.5-6c0-4,1.5-6,4.5-6c2.1,0,3.1,1.6,3.6,2.8l1.1-0.3c-0.9-2.3-2.5-3.4-4.8-3.4
			c-3.6,0-5.7,2.5-5.7,6.9c0,4.3,2.2,6.9,5.7,6.9c2.1,0,3.8-1,5.1-3.3l-1-0.5C288.7,50.3,287.6,51.4,285.6,51.4z"/>
		<path class="st0" d="M298.6,51.4c-2.8,0-4.5-2.3-4.5-6c0-4,1.5-6,4.5-6c2.1,0,3.1,1.6,3.6,2.8l1.1-0.3c-0.9-2.3-2.5-3.4-4.8-3.4
			c-3.6,0-5.7,2.5-5.7,6.9c0,4.3,2.2,6.9,5.7,6.9c2.1,0,3.8-1,5.1-3.3l-1-0.5C301.7,50.3,300.6,51.4,298.6,51.4z"/>
		<path class="st0" d="M311.7,51.4c-2.9,0-4.6-2.2-4.6-6v-0.2h9.5c0-4.3-2-6.8-5.3-6.8c-3.3,0-5.5,2.7-5.5,6.9c0,4.5,2,6.9,5.7,6.9
			c2.4,0,3.7-0.8,5.2-3.1l-1-0.5C314.4,50.8,313.5,51.4,311.7,51.4z M307.2,44.2c0-2,1.3-4.8,4.1-4.8c0,0,0,0,0,0
			c2.3,0,3.8,1.7,4.1,4.8l0,0.2h-8.3L307.2,44.2z"/>
		<rect x="320.1" y="33.4" class="st0" width="1.2" height="18.7"/>
		<path class="st0" d="M330.5,51.4c-2.9,0-4.6-2.2-4.6-6v-0.2h9.5c0-4.3-2-6.8-5.3-6.8c-3.3,0-5.5,2.7-5.5,6.9c0,4.5,2,6.9,5.7,6.9
			c2.4,0,3.7-0.8,5.2-3.1l-1-0.5C333.2,50.8,332.3,51.4,330.5,51.4z M325.9,44.2c0-2,1.3-4.8,4.1-4.8c0,0,0,0,0,0
			c2.3,0,3.8,1.7,4.1,4.8l0,0.2h-8.3L325.9,44.2z"/>
		<path class="st0" d="M340.4,41.2l0,0.1h-0.3v-2.6h-1.2v13.4h1.2v-7.6c0-2.7,2.3-4.9,4.2-4.9h0.5v-1.2h-0.5
			C342.6,38.5,341.2,39.5,340.4,41.2z"/>
		<path class="st0" d="M355.5,42.6c0-2.9-1.3-4.1-4.4-4.1c-2.2,0-3.8,0.9-4.9,2.9l0.8,0.5c1-1.6,2.4-2.4,4-2.4
			c2.3,0,3.3,0.9,3.3,2.9v1.1l-0.1,0c-5.8,1.3-8.6,1.9-8.6,5.5c0,2,1.4,3.4,3.6,3.4c2.1,0,3.3-0.6,4.9-1.9l0.2-0.2l0.2,1.8h1.2
			c-0.2-1-0.2-1.9-0.2-2.3V42.6z M354.2,49L354.2,49c-1.4,1.5-3.3,2.4-4.8,2.4c-1.6,0-2.6-1-2.6-2.5c0-1.9,1.2-3.2,7.2-4.6l0.2,0V49
			z"/>
		<path class="st0" d="M359.7,50.1c0,1.4,0.5,2.2,2.8,2.2c0.3,0,0.7-0.1,1.1-0.1c0.1,0,0.3-0.1,0.4-0.1v-0.9c-0.5,0.2-1,0.2-1.4,0.2
			c-1,0-1.6-0.5-1.6-1.6V39.6h3v-0.9h-3v-4.5h-1.2v4.5h-2.1v0.9h2.1V50.1z"/>
		<rect x="366.2" y="38.7" class="st0" width="1.2" height="13.4"/>
		<rect x="366.2" y="33.4" class="st0" width="1.2" height="2"/>
		<path class="st0" d="M376.2,38.5c-4.8,0-5.5,4.3-5.5,6.9c0,2.6,0.7,6.9,5.5,6.9c4.8,0,5.5-4.3,5.5-6.9
			C381.6,42.8,380.9,38.5,376.2,38.5z M376.2,51.4c-2.8,0-4.2-2-4.2-6c0-4,1.4-6,4.2-6s4.2,2,4.2,6C380.4,49.4,379,51.4,376.2,51.4z
			"/>
		<path class="st0" d="M385.7,42.1L385.7,42.1c0.2-0.2,0.4-0.3,0.5-0.5c1.5-1.3,2.4-2.2,4-2.2c2,0,3,1.1,3,3.7v9h1.2v-9.2
			c0-3-1.2-4.4-3.9-4.4c-1.9,0-3.1,0.8-4.6,2.4l-0.3,0.3v-2.4h-1.2v13.4h1.2V42.1z"/>
		<path class="st0" d="M314.4,67c-0.3,1.1-0.6,1.8-1.1,2.4c-0.6,0.7-1.4,1.1-2.5,1.1c-2.7,0-4.3-2.3-4.3-6.3c0-4,1.5-6.3,4.1-6.3
			c1.6,0,2.9,1.1,3.5,3.3l0,0.1l1.1-0.2l0-0.1c-0.5-1.8-1.7-4-4.5-4c-3.4,0-5.5,2.8-5.5,7.3s2.1,7.3,5.5,7.3c2.6,0,4.2-1.3,4.8-4.2
			l0-0.1L314.4,67L314.4,67z"/>
		<path class="st0" d="M321.1,60.8c-3.7,0-4.2,3.3-4.2,5.3c0,2,0.5,5.3,4.2,5.3c3.7,0,4.2-3.3,4.2-5.3
			C325.4,64.1,324.8,60.8,321.1,60.8z M324.2,66.1c0,3-1,4.5-3.1,4.5s-3.1-1.5-3.1-4.5c0-3,1-4.5,3.1-4.5S324.2,63.1,324.2,66.1z"/>
		<path class="st0" d="M331.8,60.8c-1.5,0-2.4,0.6-3.5,1.8l-0.1,0.1V61h-1.1v10.3h1.1v-7.6l0,0c0.1-0.1,0.2-0.2,0.3-0.3
			c1.1-1,1.8-1.7,3-1.7c1.5,0,2.1,0.8,2.1,2.7v6.9h1.1v-7C334.8,61.9,333.8,60.8,331.8,60.8z"/>
		<path class="st0" d="M340.7,65.3c-1.3-0.4-2.5-0.7-2.5-1.9c0-1.2,0.8-1.9,2.1-1.9c1.4,0,2.1,0.7,2.6,1.5l0,0.1l0.8-0.6l0-0.1
			c-0.8-1.2-1.9-1.7-3.5-1.7c-1.6,0-3.2,0.7-3.2,2.8c0,1.9,1.6,2.3,3.2,2.8c1.4,0.4,2.8,0.8,2.8,2.2c0,1.1-1,2-2.3,2
			c-1.2,0-2.2-0.3-3.2-1.7l0-0.1l-0.8,0.6l0,0.1c0.9,1.3,2.3,2,3.9,2c1.8,0,3.5-1,3.5-2.9C344.2,66.3,342.4,65.8,340.7,65.3z"/>
		<path class="st0" d="M349.7,60.8c-3.7,0-4.2,3.3-4.2,5.3c0,2,0.5,5.3,4.2,5.3c3.7,0,4.2-3.3,4.2-5.3
			C353.9,64.1,353.3,60.8,349.7,60.8z M352.8,66.1c0,3-1,4.5-3.1,4.5s-3.1-1.5-3.1-4.5c0-3,1-4.5,3.1-4.5S352.8,63.1,352.8,66.1z"/>
		<path class="st0" d="M357.2,62.9L357.2,62.9l-0.1,0v-2h-1.1v10.3h1.1v-5.8c0-2,1.7-3.6,3.1-3.6h0.5v-1.1h-0.5
			C358.9,60.8,357.7,61.6,357.2,62.9z"/>
		<path class="st0" d="M364,57.6h-1.1V61h-1.6v0.9h1.6v7.8c0,1.1,0.4,1.8,2.2,1.8c0.3,0,0.5-0.1,0.8-0.1c0.1,0,0.2,0,0.3-0.1l0.1,0
			v-0.9l-0.1,0c-0.4,0.1-0.8,0.2-1.1,0.2c-0.7,0-1.1-0.4-1.1-1.1v-7.6h2.3V61H364V57.6z"/>
		<rect x="367.6" y="61" class="st0" width="1.1" height="10.3"/>
		<rect x="367.5" y="56.9" class="st0" width="1.2" height="1.7"/>
		<path class="st0" d="M377.9,68.6L377.9,68.6c-0.1,0.1-0.2,0.2-0.4,0.3c-1.1,1-1.8,1.7-3,1.7c-1.5,0-2.1-0.8-2.1-2.7V61h-1.1v7
			c0,2.3,1,3.4,3,3.4c1.5,0,2.4-0.6,3.5-1.8l0.1-0.1v1.7h1.1V61h-1.1V68.6z"/>
		<path class="st0" d="M391.8,60.8c-1.6,0-2.6,0.9-3.4,1.9l-0.1,0.1l0-0.1c-0.3-1.1-1.3-1.9-2.5-1.9c-1.6,0-2.4,0.7-3.4,1.8
			l-0.1,0.1V61h-1.1v10.3h1.1v-7.6l0,0c0.7-1,2.2-2,3.1-2c1.2,0,1.8,0.6,1.8,1.8v7.8h1.1v-7.6l0,0c0.7-1,2.2-2,3.1-2
			c1.2,0,1.8,0.6,1.8,1.8v7.8h1.1v-7.7C394.5,61.7,393.6,60.8,391.8,60.8z"/>
	</g>
	<radialGradient id="SVGID_1_" cx="259.4857" cy="56.1599" r="33.9991" gradientUnits="userSpaceOnUse">
		<stop  offset="0.2233" style="stop-color:#FFC454"/>
		<stop  offset="0.5434" style="stop-color:#F17B3A"/>
		<stop  offset="1" style="stop-color:#E94A1D"/>
	</radialGradient>
	<path class="st2" d="M261.6,67.9l0.6-6c-2.2-0.2-4.1-1.7-4.9-3.7l-16,5.8l-0.3-0.8l16-5.8c-0.1-0.4-0.1-0.7-0.1-1.1v-0.4h0.8v0.4
		c0,2.7,2.2,4.8,4.8,4.8h0.4v0.4l0.7,6.4L261.6,67.9z M281.4,65.6l12.9,5.7l0.3-0.7l-12.9-5.7L281.4,65.6z M259.6,46.1l0.8-0.2
		l-2.9-10.6l-0.8,0.2L259.6,46.1z M247.2,66.3l-0.4-0.8l-16,8.5l1.1,1.9L247.2,66.3z M248,70.4l-16.9,17l0.6,0.6l16.9-17L248,70.4z
		 M247.1,81.1l1.8,1.1l7.6-14.3l-0.8-0.5L247.1,81.1z M252,88.3l0.8,0.2l2.6-8.1l-0.8-0.2L252,88.3z M275,66.5l18.7,15.4l1.4-1.7
		l-19.4-14.4c1.2-1.7,2.2-3.7,2.7-5.9l11,2.3l0.4-2.2l-11.2-1.6c0,0,0-0.1,0-0.1c0-0.4,0.1-0.8,0.1-1.1l0-0.4l-0.8,0l0,0.4
		c0,0.4,0,0.7-0.1,1.1c0,0,0,0.1,0,0.1l-8.9-1.3l-0.2,0.9l8.8,1.8c-0.7,3.1-2.3,5.7-4.5,7.8l-5.7-6.8l-0.6,0.5l5.7,6.8
		c-0.9,0.7-1.9,1.4-2.9,1.9l-1.3-2.1l-0.8,0.5l1.1,2.1c-1.8,0.7-3.8,1.1-5.8,1.1h-0.4v0.8h0.4c1.1,0,2.1-0.1,3.1-0.3l1.6,8.8
		l0.8-0.1l-1.6-8.9c0.8-0.2,1.5-0.4,2.3-0.7l5.4,10.4l1.9-1.1l-6.2-9.8C271.8,69.6,273.6,68.2,275,66.5z M233.7,56.3v0.4h0.7h0.1
		h5.7v-0.8h-5.7c0-1.3,0.1-2.5,0.3-3.8l8.1,1.1l0.2-0.9l-8-1.7c0.3-1.5,0.7-3,1.3-4.4l14.7,6.4l0.3-0.7l-14.8-6.4
		c0.7-1.8,1.7-3.5,2.7-5l17.9,11.7l0.5-0.8l-17.4-12.3c2.1-2.6,4.6-4.9,7.4-6.7l7.7,12.6l0.8-0.5l-7-13c3.7-2,7.9-3.2,12.4-3.3
		l0.4,9h0.9l0.6-13.6h-2.2l0.2,3.7c-4.6,0.1-8.9,1.4-12.7,3.4l-3-5.5l-1.9,1.1l3.3,5.3c-1.3,0.8-2.5,1.7-3.6,2.6l-10.5-10.2
		l-0.6,0.6l10.4,10.2c-1.3,1.1-2.4,2.4-3.5,3.7l-8.4-6l-1.2,1.8l8.6,5.6c-2.1,3.1-3.7,6.7-4.4,10.5l-9.9-2.1l-0.4,2.2l10.1,1.4
		C233.8,53.4,233.7,54.9,233.7,56.3z"/>
</g>
</svg>
